<svg version="1.1" id="Layer_1" xmlns="http://www.w3.org/2000/svg" xmlns:xlink="http://www.w3.org/1999/xlink" x="0px" y="0px"
	 width="100%" viewBox="0 0 3034 3033" enable-background="new 0 0 3034 3033" xml:space="preserve">
<path fill="#FFFFFF" opacity="1.000000" stroke="none" 
	d="
M1628.000000,3036.000000 
	C1085.333374,3036.000000 543.666870,3036.000000 2.000218,3036.000000 
	C2.000145,2024.666992 2.000145,1013.333862 2.000073,2.000625 
	C1013.332825,2.000417 2024.665649,2.000417 3035.999023,2.000208 
	C3035.999268,1013.332703 3035.999268,2024.665405 3035.999512,3035.999023 
	C2567.000000,3036.000000 2098.000000,3036.000000 1628.000000,3036.000000 
M2371.980713,736.075867 
	C2371.980713,736.075867 2371.520996,736.049072 2371.379150,735.208313 
	C2371.063232,734.662659 2370.590088,734.390747 2369.989502,734.048828 
	C2369.989502,734.048828 2369.644531,734.032349 2369.494629,733.146240 
	C2369.164062,732.567810 2368.665527,732.281677 2367.588623,731.128235 
	C2366.368164,730.078308 2365.147461,729.028381 2363.490967,726.719177 
	C2342.169434,705.735657 2321.282471,684.284729 2299.383545,663.921753 
	C2282.876953,648.572815 2265.074707,634.617310 2247.256104,618.854797 
	C2226.051270,602.889587 2205.203369,586.420837 2183.559082,571.075439 
	C2149.795166,547.137512 2114.999756,524.758301 2077.300537,504.738953 
	C2031.573730,479.555573 1984.357178,457.561310 1935.596069,438.930786 
	C1923.231689,434.206573 1910.586670,430.217377 1897.041992,424.881378 
	C1780.845093,384.839294 1661.212646,364.351471 1538.409912,362.263916 
	C1463.235352,360.986023 1388.610840,367.195435 1314.613770,380.449646 
	C1296.301270,383.729736 1278.212158,388.257324 1258.431152,392.005127 
	C1226.963989,400.708008 1195.293091,408.748199 1164.099365,418.340576 
	C1142.338867,425.032135 1121.232178,433.850342 1098.788330,441.719177 
	C1098.500488,441.916382 1098.212646,442.113556 1096.818970,442.211853 
	C1095.913086,442.794800 1095.007202,443.377747 1092.597534,444.002441 
	C1083.047363,448.104584 1073.497314,452.206726 1062.859497,456.241028 
	C1061.981567,456.833435 1061.103638,457.425812 1058.780762,458.066315 
	C1054.506226,460.130951 1050.231567,462.195557 1044.856934,464.200775 
	C1043.973755,464.806244 1043.090454,465.411713 1040.735840,466.095123 
	C1032.492310,470.149353 1024.248901,474.203613 1014.610962,478.363434 
	C1000.465698,485.609161 986.017151,492.325439 972.241943,500.217102 
	C947.850342,514.190735 923.868042,528.878906 898.656555,543.548279 
	C898.412781,543.819702 898.169006,544.091064 896.959473,544.398560 
	C896.306213,544.672424 895.921387,545.158752 894.445557,546.114258 
	C880.981567,555.404541 867.517639,564.694763 852.708740,574.277344 
	C810.204468,604.290344 769.920349,637.042297 731.941895,672.601868 
	C721.765747,682.129944 712.094116,692.196899 700.938293,702.529053 
	C694.626465,709.223755 688.314636,715.918518 681.276184,722.746765 
	C680.798645,723.035889 680.596252,723.457275 680.106506,724.151245 
	C680.106506,724.151245 680.027710,724.725525 679.403564,724.787109 
	C678.990051,725.023621 678.813904,725.378235 677.670349,726.608459 
	C656.651306,750.535767 634.854126,773.832703 614.822083,798.559570 
	C592.813904,825.725830 572.017517,853.915894 552.836853,884.701843 
	C436.915741,1062.263184 374.303955,1257.096680 364.609039,1468.796997 
	C360.277954,1563.371582 367.572449,1657.242188 386.491211,1750.067017 
	C413.338715,1881.794312 461.646271,2005.173828 531.605957,2120.009033 
	C538.682068,2131.623779 546.446655,2142.819092 554.143799,2155.553223 
	C601.304993,2227.254639 655.779236,2292.918945 717.778687,2352.226807 
	C737.196350,2370.801270 757.913025,2388.017822 778.597900,2406.999023 
	C780.320740,2408.198975 782.043640,2409.399170 784.040710,2411.468994 
	C784.457642,2411.991943 784.998657,2412.218018 786.274963,2413.361816 
	C828.672852,2448.107910 873.000977,2480.156982 920.012634,2508.389160 
	C937.669861,2518.992920 955.599121,2529.161133 973.633789,2539.112061 
	C983.484497,2544.546875 993.814575,2549.113281 1004.328796,2554.832520 
	C1004.328796,2554.832520 1005.032227,2555.329102 1005.032227,2555.329102 
	C1005.032227,2555.329102 1005.893188,2555.314453 1006.795593,2556.001465 
	C1007.173157,2556.020508 1007.550720,2556.039307 1008.790100,2557.137451 
	C1068.090576,2586.515137 1129.526245,2610.445801 1192.989868,2629.163086 
	C1201.864502,2631.780273 1210.919556,2633.785156 1221.058716,2637.009766 
	C1284.815674,2654.296143 1349.658691,2665.655029 1415.408569,2671.542725 
	C1481.220703,2677.435791 1547.091675,2677.749756 1613.019409,2672.481934 
	C1676.543823,2667.406006 1739.225952,2657.411865 1800.990234,2641.860107 
	C1821.560791,2636.680420 1841.789185,2630.141113 1863.544434,2624.278809 
	C1864.394897,2623.964111 1865.245239,2623.649170 1867.078979,2623.413818 
	C1867.779907,2623.265869 1868.274170,2622.863770 1870.062134,2622.239014 
	C1923.200439,2605.856201 1974.660400,2585.205078 2024.576904,2560.771973 
	C2042.733276,2551.885010 2060.361816,2541.919189 2079.641113,2532.203613 
	C2082.709473,2530.279297 2085.656250,2528.118896 2088.864990,2526.467529 
	C2120.522949,2510.175049 2150.284912,2490.770020 2179.247070,2470.222656 
	C2201.967285,2454.103760 2223.766846,2436.687500 2247.268311,2419.393555 
	C2252.273438,2414.894287 2257.278320,2410.394775 2262.436768,2406.302246 
	C2262.436768,2406.302246 2263.016113,2406.347412 2263.016113,2406.347412 
	C2263.016113,2406.347412 2263.183594,2405.802002 2263.743408,2405.772949 
	C2263.743408,2405.772949 2263.905029,2405.236328 2264.635742,2405.113770 
	C2265.114746,2404.855469 2265.372070,2404.454834 2266.709229,2403.383545 
	C2273.142822,2397.848389 2279.793945,2392.544434 2285.970215,2386.736084 
	C2306.573242,2367.361328 2327.476318,2348.270752 2347.358154,2328.175049 
	C2363.696533,2311.660889 2378.744873,2293.870605 2395.571289,2276.006104 
	C2451.371338,2211.727295 2499.369873,2142.053955 2539.735840,2067.132080 
	C2545.543701,2056.352051 2550.675781,2045.208130 2557.246826,2033.344238 
	C2559.859863,2026.980469 2562.242920,2020.510132 2565.129639,2014.273071 
	C2573.272949,1996.677246 2582.346924,1979.477661 2589.776367,1961.591309 
	C2647.162598,1823.433350 2675.870117,1679.353149 2677.548828,1529.876221 
	C2678.245605,1467.828125 2673.650635,1406.107788 2664.381104,1344.715576 
	C2652.516357,1266.132935 2632.974609,1189.541626 2604.838135,1115.244873 
	C2595.837402,1091.477539 2584.865723,1068.452759 2574.670654,1045.143066 
	C2570.781738,1036.252075 2566.676514,1027.448730 2562.432129,1018.721130 
	C2554.487305,1002.384338 2546.368652,986.132019 2538.146240,968.418091 
	C2512.598877,920.816162 2483.525879,875.451294 2451.394287,832.043457 
	C2445.281006,823.784485 2438.679688,815.886536 2431.934814,806.509583 
	C2426.798340,800.933899 2421.661621,795.358215 2416.086426,788.461182 
	C2407.750977,778.253357 2399.415527,768.045532 2391.037842,757.176086 
	C2390.800781,756.727844 2390.430420,756.532593 2389.971924,756.107483 
	C2389.971924,756.107483 2389.489014,756.060791 2389.354736,755.225281 
	C2389.054932,754.679260 2388.593994,754.392517 2387.528076,753.067017 
	C2382.746826,747.997009 2377.965576,742.927002 2373.122070,737.155396 
	C2372.866211,736.684570 2372.471924,736.477661 2371.980713,736.075867 
z"/>
<path fill="#294D47" opacity="1.000000" stroke="none" 
	d="
M1862.173950,2624.223633 
	C1841.789185,2630.141113 1821.560791,2636.680420 1800.990234,2641.860107 
	C1739.225952,2657.411865 1676.543823,2667.406006 1613.019409,2672.481934 
	C1547.091675,2677.749756 1481.220703,2677.435791 1415.408569,2671.542725 
	C1349.658691,2665.655029 1284.815674,2654.296143 1220.532104,2635.692383 
	C1220.670288,2628.472412 1221.911133,2622.570312 1221.915649,2616.666992 
	C1222.023926,2474.448242 1221.988281,2332.229248 1222.056030,2190.010498 
	C1222.057983,2185.747314 1222.804199,2181.473145 1223.357178,2177.224121 
	C1224.164917,2171.018799 1225.676758,2164.847900 1225.851196,2158.633057 
	C1226.050903,2151.518799 1225.115112,2144.372314 1224.595825,2136.000000 
	C1228.828125,2136.000000 1232.406128,2136.000000 1235.984131,2136.000000 
	C1260.630981,2136.000000 1285.277954,2136.048096 1309.924072,2135.915039 
	C1312.048584,2135.903564 1314.166504,2134.692871 1316.456299,2133.113281 
	C1316.538940,2073.875244 1316.453491,2015.563110 1316.341309,1957.251099 
	C1316.340820,1957.000732 1315.964478,1956.746216 1315.754028,1956.502075 
	C1315.536255,1956.249512 1315.306763,1956.007202 1314.744629,1955.388550 
	C1311.394531,1955.388550 1307.747192,1955.388672 1304.099854,1955.388428 
	C1274.107422,1955.386841 1244.114990,1955.383179 1214.122559,1955.384277 
	C1182.797119,1955.385498 1151.471191,1955.312988 1120.146973,1955.512085 
	C1116.899414,1955.532715 1112.725342,1953.394653 1109.788818,1957.425415 
	C1110.019775,1951.792114 1114.183228,1954.086914 1116.768799,1954.073364 
	C1149.329834,1953.902588 1181.892212,1953.977539 1214.454224,1953.937378 
	C1217.981201,1953.932983 1221.507690,1953.602051 1226.000000,1953.373413 
	C1226.000000,1948.834473 1226.000000,1945.246826 1226.000000,1941.659302 
	C1226.000000,1894.477661 1225.926636,1847.295654 1226.081055,1800.114502 
	C1226.103516,1793.218018 1227.210327,1786.324951 1228.223389,1778.902832 
	C1260.173340,1761.559937 1289.274170,1741.165649 1316.805664,1718.438110 
	C1355.387207,1686.588501 1389.408203,1649.935425 1425.398560,1615.358887 
	C1427.602783,1613.241455 1429.106934,1609.872070 1429.827759,1606.822998 
	C1433.267578,1592.272217 1436.369141,1577.640625 1439.500366,1563.018311 
	C1441.416138,1554.072021 1443.168213,1545.090698 1445.182373,1535.198853 
	C1442.578613,1535.505737 1441.317871,1535.571289 1440.091309,1535.811279 
	C1416.933105,1540.342773 1393.744873,1544.732666 1370.660156,1549.612183 
	C1367.071899,1550.370728 1363.423218,1552.829102 1360.713867,1555.445312 
	C1338.925537,1576.484863 1317.485718,1597.885742 1295.659302,1618.885254 
	C1286.100586,1628.082153 1275.888672,1636.600464 1265.950195,1644.618042 
	C1265.284668,1638.580322 1264.089600,1633.352051 1264.082520,1628.122192 
	C1263.966553,1541.966187 1264.078613,1455.809937 1263.918579,1369.654053 
	C1263.893311,1356.099243 1262.770508,1342.546997 1262.205566,1328.991577 
	C1262.151123,1327.686035 1262.458374,1326.365845 1262.593140,1325.052002 
	C1263.063232,1320.463989 1263.908569,1315.878174 1263.936401,1311.287354 
	C1264.075439,1288.335449 1263.796753,1265.379395 1264.097412,1242.430542 
	C1264.222656,1232.869751 1265.421387,1223.322998 1266.788940,1213.958008 
	C1324.052246,1258.433105 1374.750488,1308.965942 1421.766602,1363.072021 
	C1466.316895,1414.340454 1509.149658,1467.097534 1553.040771,1518.943481 
	C1601.710693,1576.434570 1652.512939,1631.925293 1709.065552,1681.880981 
	C1746.838989,1715.247925 1786.865601,1745.529907 1830.797607,1770.450684 
	C1837.313354,1774.146729 1843.593262,1778.258057 1849.984619,1783.024170 
	C1849.324585,1789.109741 1848.103271,1794.346802 1848.087158,1799.587524 
	C1847.939331,1847.882690 1847.989136,1896.178467 1848.026611,1944.474121 
	C1848.028931,1947.353882 1848.416016,1950.233398 1848.605713,1952.860718 
	C1853.000244,1953.794800 1856.515503,1954.541992 1859.092285,1955.331299 
	C1840.300415,1955.373291 1822.446899,1955.373291 1803.575439,1955.373291 
	C1803.575439,1963.623901 1803.575439,1970.751953 1803.575439,1977.644165 
	C1778.634521,1981.762085 1771.952271,1989.586914 1771.939453,2013.686157 
	C1771.928345,2034.658081 1771.534668,2055.639648 1772.045288,2076.599121 
	C1772.588745,2098.902588 1766.031860,2117.824463 1748.493408,2132.313232 
	C1748.070190,2132.662598 1748.019897,2133.463623 1747.675415,2134.656250 
	C1750.808594,2135.508789 1754.061646,2135.969482 1757.315674,2135.976562 
	C1784.311279,2136.034912 1811.307129,2136.010010 1838.302856,2136.010010 
	C1841.857056,2136.010010 1845.411255,2136.009766 1849.231567,2136.009766 
	C1848.103149,2156.170166 1846.182007,2174.956299 1846.140869,2193.746582 
	C1845.868652,2318.059814 1846.017456,2442.373779 1845.936157,2566.687500 
	C1845.932983,2571.614990 1844.627075,2576.537109 1844.556152,2581.470459 
	C1844.357178,2595.332031 1844.486694,2609.198486 1844.486694,2624.595459 
	C1849.097168,2623.192139 1852.495850,2622.395752 1855.702515,2621.117676 
	C1859.212891,2619.718262 1861.535889,2620.010254 1862.173950,2624.223633 
M1443.000000,2134.123047 
	C1497.531006,2134.123047 1552.061890,2134.123047 1607.723877,2134.123047 
	C1607.723877,2125.969482 1607.723877,2118.848633 1607.723877,2111.694824 
	C1611.126953,2111.262939 1613.436035,2111.054688 1615.714600,2110.666992 
	C1628.315674,2108.522217 1636.611938,2100.312012 1638.634033,2087.672852 
	C1639.208130,2084.084961 1639.185303,2080.380371 1639.203125,2076.728271 
	C1639.321899,2052.409668 1639.193726,2028.088745 1639.517090,2003.773560 
	C1639.740601,1986.967041 1646.511719,1972.833740 1658.508667,1961.142090 
	C1660.022095,1959.667114 1661.434204,1958.088257 1663.587769,1955.828613 
	C1558.448364,1955.828613 1454.636597,1955.828613 1349.782349,1955.828613 
	C1349.782349,1962.838623 1349.782349,1969.416626 1349.782349,1975.994507 
	C1349.782349,1982.459961 1349.782349,1988.925415 1349.782349,1995.783813 
	C1383.435669,1983.734497 1408.314697,1989.251587 1426.588379,2012.077148 
	C1445.377686,2035.546631 1447.057861,2069.723877 1430.690430,2095.336914 
	C1423.494141,2106.598389 1413.915527,2115.081543 1401.491455,2120.155762 
	C1384.200806,2127.217285 1367.194214,2125.438477 1350.472412,2117.356934 
	C1350.472412,2123.405762 1350.472412,2128.514893 1350.472412,2134.122559 
	C1381.103882,2134.122559 1411.052002,2134.122559 1443.000000,2134.123047 
M1701.776367,1972.387695 
	C1701.533569,1974.239502 1701.290894,1976.091309 1701.049438,1977.932617 
	C1698.468628,1978.270020 1696.486450,1978.449829 1694.534058,1978.796875 
	C1678.663208,1981.619263 1670.000732,1991.442383 1669.850708,2007.682983 
	C1669.620117,2032.645874 1669.846313,2057.612793 1669.767578,2082.577637 
	C1669.708984,2101.157471 1663.075684,2116.956299 1649.335083,2129.630371 
	C1648.216187,2130.662354 1647.074951,2131.669922 1644.950439,2133.583984 
	C1667.147461,2133.583984 1687.862061,2133.583984 1709.704346,2133.583984 
	C1709.704346,2125.963867 1709.704346,2118.845215 1709.704346,2111.694824 
	C1713.424194,2111.217529 1716.068848,2110.998535 1718.666870,2110.524658 
	C1732.793945,2107.947021 1741.303955,2097.169922 1741.435059,2080.951172 
	C1741.636841,2055.987793 1741.474487,2031.021362 1741.517456,2006.056274 
	C1741.549072,1987.749023 1748.415161,1972.432983 1761.876465,1960.049805 
	C1762.974365,1959.039795 1764.032715,1957.986938 1766.064209,1956.037842 
	C1743.802612,1956.037842 1723.122925,1956.037842 1701.778442,1956.037842 
	C1701.778442,1961.321045 1701.778442,1965.928467 1701.776367,1972.387695 
M1363.709595,2083.837402 
	C1367.388184,2085.269531 1370.954102,2087.350098 1374.766357,2088.012695 
	C1386.383423,2090.031982 1395.787109,2085.659668 1402.529663,2076.254150 
	C1410.156006,2065.615723 1410.691650,2053.848145 1405.443481,2042.166626 
	C1400.548462,2031.270874 1391.510986,2024.888672 1379.596924,2024.707397 
	C1368.096558,2024.532471 1359.457031,2030.550049 1353.849976,2040.722290 
	C1345.870972,2055.197754 1350.217285,2074.285400 1363.709595,2083.837402 
z"/>
<path fill="#294C47" opacity="1.000000" stroke="none" 
	d="
M1260.020386,392.211456 
	C1278.212158,388.257324 1296.301270,383.729736 1314.613770,380.449646 
	C1388.610840,367.195435 1463.235352,360.986023 1538.409912,362.263916 
	C1661.212646,364.351471 1780.845093,384.839294 1897.532104,426.329681 
	C1898.014893,479.083344 1897.983032,530.388794 1898.052002,581.694031 
	C1898.056885,585.302063 1898.173828,589.125000 1899.318848,592.479187 
	C1904.239868,606.894043 1904.082886,621.725403 1904.060913,636.664124 
	C1903.935669,722.283936 1904.000000,807.903992 1904.000000,893.523987 
	C1904.000000,936.167419 1904.027100,978.810852 1903.945557,1021.454102 
	C1903.939331,1024.700928 1904.228760,1028.765747 1902.504639,1031.007446 
	C1899.641846,1034.729736 1900.167236,1038.421387 1899.640381,1042.839600 
	C1890.030396,1046.570068 1880.827515,1049.518677 1871.859863,1053.062744 
	C1816.888550,1074.787598 1768.796753,1107.538330 1726.121216,1147.812744 
	C1689.069336,1182.779907 1653.927734,1219.771729 1617.979492,1255.905884 
	C1617.479126,1256.408936 1617.466797,1257.397949 1616.989868,1258.911621 
	C1640.483154,1255.261719 1663.268799,1251.721924 1686.657471,1248.088257 
	C1685.631836,1271.995117 1680.807373,1294.219238 1680.057007,1318.746460 
	C1698.188843,1300.095215 1714.634644,1283.115234 1731.158813,1266.211670 
	C1737.880493,1259.335938 1744.771729,1252.626221 1752.397461,1245.972656 
	C1759.091675,1247.718750 1757.959229,1252.569336 1757.971313,1256.739624 
	C1758.033203,1278.026489 1757.862549,1299.315308 1758.118286,1320.599243 
	C1758.168091,1324.755127 1758.425659,1330.099365 1760.888306,1332.788086 
	C1766.055176,1338.428833 1766.176392,1344.569946 1766.034668,1351.271240 
	C1765.880005,1358.585449 1766.168091,1365.911621 1765.901489,1373.219482 
	C1765.810303,1375.716919 1765.421875,1379.309570 1763.798218,1380.450073 
	C1757.480835,1384.886963 1757.982056,1391.110229 1757.984619,1397.451538 
	C1758.009888,1459.982300 1758.259033,1522.515381 1757.737427,1585.041748 
	C1757.653442,1595.112671 1761.191650,1602.484985 1768.022705,1608.452637 
	C1771.714844,1611.678101 1772.225586,1614.798828 1771.051880,1618.622559 
	C1723.483643,1577.220825 1680.684082,1532.057495 1640.415405,1484.483398 
	C1594.604248,1430.361328 1549.657593,1375.499756 1503.379028,1321.783325 
	C1453.778687,1264.211548 1401.171387,1209.424561 1342.058960,1161.442139 
	C1316.268311,1140.507446 1288.724854,1121.731934 1262.091797,1101.147217 
	C1262.804077,1096.081909 1263.944092,1091.841553 1263.914795,1087.609375 
	C1263.666992,1051.727051 1263.292236,1015.854980 1262.441284,979.969543 
	C1260.889038,914.526550 1262.452271,849.016357 1261.869751,783.541748 
	C1261.313477,721.026855 1262.554443,658.532166 1260.505371,595.979614 
	C1258.282593,528.124390 1260.013550,460.139679 1260.020386,392.211456 
z"/>
<path fill="#2B4535" opacity="1.000000" stroke="none" 
	d="
M778.035156,2405.855957 
	C757.913025,2388.017822 737.196350,2370.801270 717.778687,2352.226807 
	C655.779236,2292.918945 601.304993,2227.254639 554.131348,2154.106201 
	C557.579224,2147.471191 558.755188,2141.895508 557.654297,2135.671387 
	C556.794434,2130.810303 556.067871,2125.844482 556.066284,2120.924805 
	C555.990173,1889.727661 555.979004,1658.530518 556.079651,1427.333374 
	C556.083557,1418.424805 557.343994,1409.521606 557.831238,1400.605591 
	C557.974243,1397.988403 557.520325,1395.330566 557.249695,1392.700684 
	C556.878113,1389.090332 555.940918,1385.469727 556.082642,1381.886719 
	C556.712036,1365.982788 554.142456,1349.956299 557.850098,1334.160645 
	C558.141296,1332.919922 557.797791,1331.516235 557.676270,1330.195068 
	C557.131958,1324.277832 556.075256,1318.363525 556.071289,1312.447510 
	C555.979065,1175.195068 556.023682,1037.942505 555.914734,900.690125 
	C555.910339,895.122925 554.655273,889.556763 553.982971,883.990112 
	C572.017517,853.915894 592.813904,825.725830 614.822083,798.559570 
	C634.854126,773.832703 656.651306,750.535767 678.524414,726.112915 
	C679.684937,725.385681 679.901367,725.088379 680.027710,724.725525 
	C680.027710,724.725525 680.106506,724.151245 680.679688,723.923828 
	C681.617126,723.414612 681.867126,723.053589 682.002808,722.613281 
	C688.314636,715.918518 694.626465,709.223755 702.224854,702.392944 
	C704.044312,703.280762 705.274231,704.936707 705.005066,705.233643 
	C701.182007,709.450684 702.010925,714.565063 702.010437,719.497375 
	C701.997314,852.777527 702.000000,986.057617 702.000000,1119.337769 
	C702.000000,1123.223755 702.000000,1127.109863 702.000000,1131.687622 
	C706.541260,1131.435425 709.690552,1131.260498 713.348083,1131.057373 
	C713.572449,1132.728760 713.783875,1134.303467 713.985046,1135.944336 
	C713.974792,1136.010254 713.842224,1136.000610 713.468567,1136.159912 
	C712.619324,1136.618896 712.276062,1137.029175 711.669312,1138.135498 
	C707.829468,1141.225098 704.033081,1143.365601 701.004333,1146.298706 
	C690.064026,1156.892944 679.191467,1167.570801 668.640747,1178.551025 
	C644.092468,1204.098877 624.694031,1233.377441 608.510193,1264.705811 
	C600.650757,1279.919922 594.431580,1295.921143 589.141418,1312.374146 
	C578.779114,1344.601807 571.881409,1377.388550 570.321716,1411.148193 
	C567.386780,1474.672852 580.385925,1535.017090 608.875183,1591.807983 
	C649.497864,1672.785889 711.579224,1732.738403 790.833496,1775.583496 
	C794.606567,1777.623291 798.291870,1779.825195 801.297791,1782.076416 
	C794.219055,1786.992920 793.964172,1793.843140 793.965942,1800.958496 
	C794.009338,1977.699829 794.076294,2154.441162 793.911133,2331.182373 
	C793.888489,2355.394775 792.663452,2379.606201 791.996094,2403.818115 
	C791.977722,2404.483398 791.981262,2405.149658 791.955750,2405.814697 
	C791.801392,2409.853760 789.505249,2411.769531 785.663696,2412.147461 
	C784.998657,2412.218018 784.457642,2411.991943 783.958862,2410.294922 
	C783.742981,2404.788574 782.481934,2402.472412 778.035156,2405.855957 
z"/>
<path fill="#2E4532" opacity="1.000000" stroke="none" 
	d="
M553.409912,884.345947 
	C554.655273,889.556763 555.910339,895.122925 555.914734,900.690125 
	C556.023682,1037.942505 555.979065,1175.195068 556.071289,1312.447510 
	C556.075256,1318.363525 557.131958,1324.277832 557.676270,1330.195068 
	C557.797791,1331.516235 558.141296,1332.919922 557.850098,1334.160645 
	C554.142456,1349.956299 556.712036,1365.982788 556.082642,1381.886719 
	C555.940918,1385.469727 556.878113,1389.090332 557.249695,1392.700684 
	C557.520325,1395.330566 557.974243,1397.988403 557.831238,1400.605591 
	C557.343994,1409.521606 556.083557,1418.424805 556.079651,1427.333374 
	C555.979004,1658.530518 555.990173,1889.727661 556.066284,2120.924805 
	C556.067871,2125.844482 556.794434,2130.810303 557.654297,2135.671387 
	C558.755188,2141.895508 557.579224,2147.471191 554.005310,2153.434082 
	C546.446655,2142.819092 538.682068,2131.623779 531.605957,2120.009033 
	C461.646271,2005.173828 413.338715,1881.794312 386.491211,1750.067017 
	C367.572449,1657.242188 360.277954,1563.371582 364.609039,1468.796997 
	C374.303955,1257.096680 436.915741,1062.263184 553.409912,884.345947 
z"/>
<path fill="#2D4844" opacity="1.000000" stroke="none" 
	d="
M1862.859131,2624.251221 
	C1861.535889,2620.010254 1859.212891,2619.718262 1855.702515,2621.117676 
	C1852.495850,2622.395752 1849.097168,2623.192139 1844.486694,2624.595459 
	C1844.486694,2609.198486 1844.357178,2595.332031 1844.556152,2581.470459 
	C1844.627075,2576.537109 1845.932983,2571.614990 1845.936157,2566.687500 
	C1846.017456,2442.373779 1845.868652,2318.059814 1846.140869,2193.746582 
	C1846.182007,2174.956299 1848.103149,2156.170166 1849.231567,2136.009766 
	C1845.411255,2136.009766 1841.857056,2136.010010 1838.302856,2136.010010 
	C1811.307129,2136.010010 1784.311279,2136.034912 1757.315674,2135.976562 
	C1754.061646,2135.969482 1750.808594,2135.508789 1748.626953,2134.655762 
	C1783.957886,2134.072266 1818.217407,2134.031738 1852.476074,2134.178223 
	C1857.296753,2134.198730 1861.378418,2133.184814 1865.561401,2130.587646 
	C1909.041870,2103.590820 1952.650513,2076.800049 1996.196045,2049.907959 
	C1998.281006,2048.620361 2000.110474,2046.919434 2002.517578,2045.055664 
	C1954.489258,2014.797852 1907.260132,1985.043579 1860.030884,1955.289185 
	C1856.515503,1954.541992 1853.000244,1953.794800 1848.605713,1952.860718 
	C1848.416016,1950.233398 1848.028931,1947.353882 1848.026611,1944.474121 
	C1847.989136,1896.178467 1847.939331,1847.882690 1848.087158,1799.587524 
	C1848.103271,1794.346802 1849.324585,1789.109741 1850.702637,1782.840942 
	C1858.030762,1784.878418 1864.613159,1788.012695 1871.260620,1791.002563 
	C1918.976196,1812.463867 1968.656738,1825.768433 2021.262085,1826.166016 
	C2037.489380,1826.288818 2053.726318,1825.126221 2070.566406,1824.982788 
	C2073.745361,1825.859009 2076.316895,1826.304565 2079.910889,1826.927124 
	C2080.608643,1831.773560 2081.888428,1836.601685 2081.907959,1841.434814 
	C2082.069824,1881.729370 2082.087402,1922.025269 2081.886475,1962.319336 
	C2081.862305,1967.187866 2081.232422,1972.500000 2079.191406,1976.804199 
	C2076.327148,1982.844604 2075.973389,1988.869995 2075.976562,1995.218262 
	C2076.013672,2064.819092 2075.541016,2134.423584 2076.128662,2204.019531 
	C2076.718262,2273.867676 2074.380127,2343.713623 2077.677002,2413.579834 
	C2079.542725,2453.122559 2078.153809,2492.818604 2078.230957,2532.445801 
	C2060.361816,2541.919189 2042.733276,2551.885010 2024.576904,2560.771973 
	C1974.660400,2585.205078 1923.200439,2605.856201 1868.840332,2622.257568 
	C1866.975464,2622.433838 1866.467773,2622.786621 1866.095703,2623.334473 
	C1865.245239,2623.649170 1864.394897,2623.964111 1862.859131,2624.251221 
z"/>
<path fill="#2A4A40" opacity="1.000000" stroke="none" 
	d="
M1227.815430,1779.430420 
	C1227.210327,1786.324951 1226.103516,1793.218018 1226.081055,1800.114502 
	C1225.926636,1847.295654 1226.000000,1894.477661 1226.000000,1941.659302 
	C1226.000000,1945.246826 1226.000000,1948.834473 1226.000000,1953.373413 
	C1221.507690,1953.602051 1217.981201,1953.932983 1214.454224,1953.937378 
	C1181.892212,1953.977539 1149.329834,1953.902588 1116.768799,1954.073364 
	C1114.183228,1954.086914 1110.019775,1951.792114 1110.446533,1957.589600 
	C1151.571899,1986.745728 1191.471558,2015.345825 1232.098022,2044.466919 
	C1190.627075,2074.389404 1150.534180,2103.317627 1110.441406,2132.245850 
	C1110.617798,2132.843506 1110.794189,2133.441406 1110.970459,2134.039062 
	C1179.409424,2134.039062 1247.848389,2134.039062 1316.287354,2134.039062 
	C1314.166504,2134.692871 1312.048584,2135.903564 1309.924072,2135.915039 
	C1285.277954,2136.048096 1260.630981,2136.000000 1235.984131,2136.000000 
	C1232.406128,2136.000000 1228.828125,2136.000000 1224.595825,2136.000000 
	C1225.115112,2144.372314 1226.050903,2151.518799 1225.851196,2158.633057 
	C1225.676758,2164.847900 1224.164917,2171.018799 1223.357178,2177.224121 
	C1222.804199,2181.473145 1222.057983,2185.747314 1222.056030,2190.010498 
	C1221.988281,2332.229248 1222.023926,2474.448242 1221.915649,2616.666992 
	C1221.911133,2622.570312 1220.670288,2628.472412 1219.948242,2635.224609 
	C1210.919556,2633.785156 1201.864502,2631.780273 1192.989868,2629.163086 
	C1129.526245,2610.445801 1068.090576,2586.515137 1008.797363,2556.005371 
	C1014.608765,2549.883057 1013.993408,2543.070557 1013.993896,2536.456299 
	C1014.002319,2420.805420 1013.987976,2305.154785 1014.051514,2189.503906 
	C1014.053711,2185.568604 1014.671570,2181.612305 1015.260315,2177.704346 
	C1016.040466,2172.526855 1017.874390,2167.388916 1017.882019,2162.231689 
	C1018.039001,2056.579834 1018.000000,1950.927612 1018.000000,1845.275391 
	C1018.000000,1841.340820 1018.000000,1837.406250 1018.000000,1833.672974 
	C1021.958557,1832.308228 1024.989746,1831.263184 1028.890625,1830.015137 
	C1036.052002,1829.339722 1042.339355,1828.788208 1048.636841,1828.407959 
	C1089.957886,1825.912842 1130.360596,1818.489502 1169.220215,1804.164429 
	C1189.091064,1796.839355 1208.304688,1787.732178 1227.815430,1779.430420 
z"/>
<path fill="#313A39" opacity="1.000000" stroke="none" 
	d="
M2432.303223,807.822021 
	C2438.679688,815.886536 2445.281006,823.784485 2451.394287,832.043457 
	C2483.525879,875.451294 2512.598877,920.816162 2537.606445,969.433838 
	C2534.245850,972.222534 2534.177734,974.398926 2535.598389,977.263550 
	C2537.913574,981.931702 2539.878418,986.773682 2542.331543,992.310852 
	C2534.548096,994.130676 2536.015625,999.985107 2536.014648,1005.154053 
	C2535.995361,1107.474243 2536.043457,1209.794556 2535.911133,1312.114624 
	C2535.901611,1319.594604 2534.620850,1327.072998 2533.760254,1336.405518 
	C2534.743896,1337.006958 2537.277832,1339.067383 2540.175537,1340.187622 
	C2543.214600,1341.362793 2546.627441,1341.534912 2549.831299,1342.329834 
	C2553.771973,1343.307373 2555.937256,1345.474731 2556.084473,1350.015869 
	C2556.470215,1361.937744 2557.870117,1373.842407 2557.909180,1385.757202 
	C2558.106934,1446.082153 2558.020508,1506.408203 2557.943359,1566.733643 
	C2557.939209,1569.994995 2557.182617,1573.266113 2556.658936,1576.513672 
	C2555.824463,1581.686157 2554.121826,1586.841431 2554.113770,1592.005981 
	C2553.959473,1690.659790 2554.246582,1789.314941 2553.857178,1887.967407 
	C2553.732666,1919.540039 2555.691406,1951.137085 2552.260010,1982.725708 
	C2550.756836,1996.560913 2552.199219,2010.699219 2551.881592,2024.690308 
	C2551.786865,2028.857056 2553.459961,2031.608887 2556.120850,2034.232788 
	C2550.675781,2045.208130 2545.543701,2056.352051 2539.735840,2067.132080 
	C2499.369873,2142.053955 2451.371338,2211.727295 2394.518555,2275.630127 
	C2389.352051,2272.624268 2389.948486,2268.469238 2390.002930,2264.503174 
	C2390.463379,2230.944336 2390.600098,2197.395752 2391.550049,2163.825684 
	C2393.178955,2106.249512 2391.971924,2048.593750 2392.062256,1990.971436 
	C2392.068359,1987.055054 2392.870605,1983.125366 2393.472900,1979.228027 
	C2394.222900,1974.376587 2395.880371,1969.554077 2395.890625,1964.716309 
	C2396.047607,1890.440552 2396.000000,1816.164185 2396.000000,1741.888062 
	C2396.000000,1723.235718 2395.984619,1704.583496 2396.010498,1685.931152 
	C2396.017090,1681.172607 2395.888184,1676.519897 2391.419922,1673.047119 
	C2457.656250,1598.593750 2492.489990,1513.055298 2489.722656,1413.200073 
	C2488.520020,1369.806152 2479.199219,1328.257202 2462.999268,1288.101196 
	C2453.382812,1264.264160 2440.554932,1242.152954 2428.001953,1220.145752 
	C2435.096436,1217.078857 2434.042725,1211.323120 2433.962646,1206.140015 
	C2432.816650,1131.958252 2435.374756,1057.778198 2432.386475,983.566711 
	C2430.364502,933.356567 2432.046875,882.999146 2431.915039,832.708008 
	C2431.904053,828.494812 2431.478271,823.947815 2429.848633,820.155884 
	C2427.655762,815.051880 2428.072266,811.263794 2432.303223,807.822021 
z"/>
<path fill="#2B483A" opacity="1.000000" stroke="none" 
	d="
M1028.021118,1830.218262 
	C1024.989746,1831.263184 1021.958557,1832.308228 1018.000000,1833.672974 
	C1018.000000,1837.406250 1018.000000,1841.340820 1018.000000,1845.275391 
	C1018.000000,1950.927612 1018.039001,2056.579834 1017.882019,2162.231689 
	C1017.874390,2167.388916 1016.040466,2172.526855 1015.260315,2177.704346 
	C1014.671570,2181.612305 1014.053711,2185.568604 1014.051514,2189.503906 
	C1013.987976,2305.154785 1014.002319,2420.805420 1013.993896,2536.456299 
	C1013.993408,2543.070557 1014.608765,2549.883057 1008.366455,2555.465576 
	C1007.550720,2556.039307 1007.173157,2556.020508 1006.097168,2555.338867 
	C1004.977173,2554.308350 1004.487061,2554.106445 1003.928406,2554.071289 
	C993.814575,2549.113281 983.484497,2544.546875 973.633789,2539.112061 
	C955.599121,2529.161133 937.669861,2518.992920 920.012634,2508.389160 
	C873.000977,2480.156982 828.672852,2448.107910 785.969360,2412.754639 
	C789.505249,2411.769531 791.801392,2409.853760 791.955750,2405.814697 
	C791.981262,2405.149658 791.977722,2404.483398 791.996094,2403.818115 
	C792.663452,2379.606201 793.888489,2355.394775 793.911133,2331.182373 
	C794.076294,2154.441162 794.009338,1977.699829 793.965942,1800.958496 
	C793.964172,1793.843140 794.219055,1786.992920 802.024048,1782.132812 
	C835.995056,1798.224609 870.388550,1809.390869 905.177429,1819.267944 
	C917.084534,1822.648560 929.631470,1823.866699 941.940796,1825.707275 
	C949.940918,1826.903320 958.039795,1827.438599 966.696045,1828.805298 
	C972.486572,1829.481079 977.675537,1829.621582 983.726196,1829.544922 
	C999.065613,1829.624390 1013.543335,1829.921387 1028.021118,1830.218262 
z"/>
<path fill="#2F4341" opacity="1.000000" stroke="none" 
	d="
M2078.936035,2532.324707 
	C2078.153809,2492.818604 2079.542725,2453.122559 2077.677002,2413.579834 
	C2074.380127,2343.713623 2076.718262,2273.867676 2076.128662,2204.019531 
	C2075.541016,2134.423584 2076.013672,2064.819092 2075.976562,1995.218262 
	C2075.973389,1988.869995 2076.327148,1982.844604 2079.191406,1976.804199 
	C2081.232422,1972.500000 2081.862305,1967.187866 2081.886475,1962.319336 
	C2082.087402,1922.025269 2082.069824,1881.729370 2081.907959,1841.434814 
	C2081.888428,1836.601685 2080.608643,1831.773560 2079.910889,1826.927124 
	C2076.316895,1826.304565 2073.745361,1825.859009 2071.372070,1824.778076 
	C2075.387207,1824.011353 2079.203857,1823.880005 2083.751465,1823.807983 
	C2086.256104,1823.425049 2088.029785,1822.982788 2090.628906,1822.280762 
	C2111.333252,1818.310059 2131.317871,1815.082886 2151.066895,1810.774292 
	C2180.306641,1804.395386 2208.249512,1793.848022 2236.527344,1783.133789 
	C2243.445801,1785.435791 2244.064697,1790.077515 2244.115234,1795.958496 
	C2245.234863,1926.027710 2242.071045,2056.103271 2245.710693,2186.180420 
	C2247.404297,2246.717529 2246.021729,2307.341064 2245.945312,2367.925537 
	C2245.940674,2371.527100 2245.506348,2375.215332 2244.653809,2378.712402 
	C2242.031494,2389.467773 2241.879639,2400.363525 2241.890137,2411.335205 
	C2241.893555,2415.115967 2243.436523,2417.577393 2245.975586,2419.847900 
	C2223.766846,2436.687500 2201.967285,2454.103760 2179.247070,2470.222656 
	C2150.284912,2490.770020 2120.522949,2510.175049 2088.864990,2526.467529 
	C2085.656250,2528.118896 2082.709473,2530.279297 2078.936035,2532.324707 
z"/>
<path fill="#2A4B41" opacity="1.000000" stroke="none" 
	d="
M1259.225830,392.108276 
	C1260.013550,460.139679 1258.282593,528.124390 1260.505371,595.979614 
	C1262.554443,658.532166 1261.313477,721.026855 1261.869751,783.541748 
	C1262.452271,849.016357 1260.889038,914.526550 1262.441284,979.969543 
	C1263.292236,1015.854980 1263.666992,1051.727051 1263.914795,1087.609375 
	C1263.944092,1091.841553 1262.804077,1096.081909 1261.401123,1101.058960 
	C1228.431641,1081.770020 1195.284546,1063.609253 1159.379150,1051.163574 
	C1141.512329,1044.970459 1123.198730,1040.066650 1105.801270,1034.031250 
	C1107.010376,1029.599121 1107.924805,1025.716553 1107.935181,1021.831482 
	C1108.041138,982.186279 1108.000000,942.540649 1108.000000,902.895142 
	C1108.000000,870.245911 1107.995605,837.596680 1108.005737,804.947449 
	C1108.006958,800.952942 1108.551880,796.728760 1104.838989,793.921936 
	C1099.881714,790.174316 1099.943481,785.001038 1099.949707,779.534668 
	C1100.026489,710.904724 1100.019897,642.274658 1099.992798,573.644653 
	C1099.975464,529.669312 1099.888916,485.694000 1099.833496,441.718658 
	C1121.232178,433.850342 1142.338867,425.032135 1164.099365,418.340576 
	C1195.293091,408.748199 1226.963989,400.708008 1259.225830,392.108276 
z"/>
<path fill="#2D4744" opacity="1.000000" stroke="none" 
	d="
M1900.156006,1042.332886 
	C1900.167236,1038.421387 1899.641846,1034.729736 1902.504639,1031.007446 
	C1904.228760,1028.765747 1903.939331,1024.700928 1903.945557,1021.454102 
	C1904.027100,978.810852 1904.000000,936.167419 1904.000000,893.523987 
	C1904.000000,807.903992 1903.935669,722.283936 1904.060913,636.664124 
	C1904.082886,621.725403 1904.239868,606.894043 1899.318848,592.479187 
	C1898.173828,589.125000 1898.056885,585.302063 1898.052002,581.694031 
	C1897.983032,530.388794 1898.014893,479.083344 1898.046387,426.834229 
	C1910.586670,430.217377 1923.231689,434.206573 1935.596069,438.930786 
	C1984.357178,457.561310 2031.573730,479.555573 2077.664551,506.248901 
	C2078.018799,668.279968 2078.006836,828.801025 2078.017822,989.322144 
	C2078.017822,992.306152 2077.306641,995.829712 2078.601807,998.178467 
	C2083.537109,1007.129272 2082.112549,1016.118652 2079.206055,1025.399414 
	C2043.189087,1022.671570 2008.090576,1023.133423 1972.983398,1027.394653 
	C1948.259888,1030.395630 1924.200073,1036.230225 1900.156006,1042.332886 
z"/>
<path fill="#313E3E" opacity="1.000000" stroke="none" 
	d="
M2246.622070,2419.620605 
	C2243.436523,2417.577393 2241.893555,2415.115967 2241.890137,2411.335205 
	C2241.879639,2400.363525 2242.031494,2389.467773 2244.653809,2378.712402 
	C2245.506348,2375.215332 2245.940674,2371.527100 2245.945312,2367.925537 
	C2246.021729,2307.341064 2247.404297,2246.717529 2245.710693,2186.180420 
	C2242.071045,2056.103271 2245.234863,1926.027710 2244.115234,1795.958496 
	C2244.064697,1790.077515 2243.445801,1785.435791 2237.150391,1782.721680 
	C2273.402344,1765.595215 2307.898438,1746.278076 2338.663086,1721.115601 
	C2356.891846,1706.206177 2373.692139,1689.550415 2391.134766,1673.679810 
	C2395.888184,1676.519897 2396.017090,1681.172607 2396.010498,1685.931152 
	C2395.984619,1704.583496 2396.000000,1723.235718 2396.000000,1741.888062 
	C2396.000000,1816.164185 2396.047607,1890.440552 2395.890625,1964.716309 
	C2395.880371,1969.554077 2394.222900,1974.376587 2393.472900,1979.228027 
	C2392.870605,1983.125366 2392.068359,1987.055054 2392.062256,1990.971436 
	C2391.971924,2048.593750 2393.178955,2106.249512 2391.550049,2163.825684 
	C2390.600098,2197.395752 2390.463379,2230.944336 2390.002930,2264.503174 
	C2389.948486,2268.469238 2389.352051,2272.624268 2393.915527,2275.950195 
	C2378.744873,2293.870605 2363.696533,2311.660889 2347.358154,2328.175049 
	C2327.476318,2348.270752 2306.573242,2367.361328 2285.970215,2386.736084 
	C2279.793945,2392.544434 2273.142822,2397.848389 2265.755371,2403.803223 
	C2264.419922,2404.487549 2264.121094,2404.825439 2263.905029,2405.236328 
	C2263.905029,2405.236328 2263.743408,2405.772949 2263.237793,2405.804199 
	C2262.731934,2405.835449 2262.283203,2405.895264 2262.283203,2405.895264 
	C2257.278320,2410.394775 2252.273438,2414.894287 2246.622070,2419.620605 
z"/>
<path fill="#303534" opacity="1.000000" stroke="none" 
	d="
M2556.683838,2033.788574 
	C2553.459961,2031.608887 2551.786865,2028.857056 2551.881592,2024.690308 
	C2552.199219,2010.699219 2550.756836,1996.560913 2552.260010,1982.725708 
	C2555.691406,1951.137085 2553.732666,1919.540039 2553.857178,1887.967407 
	C2554.246582,1789.314941 2553.959473,1690.659790 2554.113770,1592.005981 
	C2554.121826,1586.841431 2555.824463,1581.686157 2556.658936,1576.513672 
	C2557.182617,1573.266113 2557.939209,1569.994995 2557.943359,1566.733643 
	C2558.020508,1506.408203 2558.106934,1446.082153 2557.909180,1385.757202 
	C2557.870117,1373.842407 2556.470215,1361.937744 2556.084473,1350.015869 
	C2555.937256,1345.474731 2553.771973,1343.307373 2549.831299,1342.329834 
	C2546.627441,1341.534912 2543.214600,1341.362793 2540.175537,1340.187622 
	C2537.277832,1339.067383 2534.743896,1337.006958 2533.760254,1336.405518 
	C2534.620850,1327.072998 2535.901611,1319.594604 2535.911133,1312.114624 
	C2536.043457,1209.794556 2535.995361,1107.474243 2536.014648,1005.154053 
	C2536.015625,999.985107 2534.548096,994.130676 2542.331543,992.310852 
	C2539.878418,986.773682 2537.913574,981.931702 2535.598389,977.263550 
	C2534.177734,974.398926 2534.245850,972.222534 2537.694580,970.147034 
	C2546.368652,986.132019 2554.487305,1002.384338 2562.432129,1018.721130 
	C2566.676514,1027.448730 2570.781738,1036.252075 2574.670654,1045.143066 
	C2584.865723,1068.452759 2595.837402,1091.477539 2604.838135,1115.244873 
	C2632.974609,1189.541626 2652.516357,1266.132935 2664.381104,1344.715576 
	C2673.650635,1406.107788 2678.245605,1467.828125 2677.548828,1529.876221 
	C2675.870117,1679.353149 2647.162598,1823.433350 2589.776367,1961.591309 
	C2582.346924,1979.477661 2573.272949,1996.677246 2565.129639,2014.273071 
	C2562.242920,2020.510132 2559.859863,2026.980469 2556.683838,2033.788574 
M2554.000000,1259.000000 
	C2554.000000,1217.000977 2554.216553,1175.000488 2553.938965,1133.003296 
	C2553.660889,1090.929932 2555.470947,1048.823730 2552.234863,1006.789673 
	C2542.964844,1006.221191 2542.281738,1006.768311 2542.013184,1015.206299 
	C2541.938965,1017.537170 2542.000000,1019.872498 2542.000000,1022.205750 
	C2542.000000,1116.203613 2542.000000,1210.201416 2542.000488,1304.199341 
	C2542.000488,1308.199219 2541.825684,1312.210571 2542.077148,1316.194702 
	C2542.220215,1318.454346 2542.616699,1320.938477 2543.741943,1322.816528 
	C2544.588867,1324.230225 2546.952393,1325.820312 2548.323975,1325.572998 
	C2550.239746,1325.227539 2552.696533,1323.588867 2553.402100,1321.876953 
	C2554.356445,1319.562134 2553.977295,1316.653198 2553.982422,1313.998779 
	C2554.016357,1296.332520 2554.000000,1278.666260 2554.000000,1259.000000 
z"/>
<path fill="#2F4341" opacity="1.000000" stroke="none" 
	d="
M2080.028076,1025.273560 
	C2082.112549,1016.118652 2083.537109,1007.129272 2078.601807,998.178467 
	C2077.306641,995.829712 2078.017822,992.306152 2078.017822,989.322144 
	C2078.006836,828.801025 2078.018799,668.279968 2078.055176,506.814087 
	C2114.999756,524.758301 2149.795166,547.137512 2183.559082,571.075439 
	C2205.203369,586.420837 2226.051270,602.889587 2247.009277,619.986572 
	C2245.841797,628.646545 2244.127197,636.173889 2244.117920,643.703308 
	C2243.954590,775.367676 2243.974121,907.032349 2244.055176,1038.696899 
	C2244.060791,1048.035645 2244.217041,1057.280640 2239.282959,1065.911377 
	C2220.504639,1059.204102 2202.637695,1051.979248 2184.370850,1045.969116 
	C2150.477783,1034.817505 2115.406250,1029.169067 2080.028076,1025.273560 
z"/>
<path fill="#2C4738" opacity="1.000000" stroke="none" 
	d="
M713.995361,1135.878296 
	C713.783875,1134.303467 713.572449,1132.728760 713.348083,1131.057373 
	C709.690552,1131.260498 706.541260,1131.435425 702.000000,1131.687622 
	C702.000000,1127.109863 702.000000,1123.223755 702.000000,1119.337769 
	C702.000000,986.057617 701.997314,852.777527 702.010437,719.497375 
	C702.010925,714.565063 701.182007,709.450684 705.005066,705.233643 
	C705.274231,704.936707 704.044312,703.280762 702.851196,702.136597 
	C712.094116,692.196899 721.765747,682.129944 731.941895,672.601868 
	C769.920349,637.042297 810.204468,604.290344 853.938843,574.663208 
	C856.112549,582.570312 857.821106,590.086365 857.872192,597.613647 
	C858.143921,637.607239 857.999939,677.603699 858.000000,717.599121 
	C858.000061,738.929993 857.897766,760.261902 858.102112,781.590820 
	C858.135803,785.106750 858.327026,790.199280 860.495300,791.818481 
	C866.804382,796.530212 866.067871,802.623352 865.995728,808.875244 
	C865.162354,881.112976 867.846924,953.377991 864.137085,1025.600220 
	C863.597778,1036.099487 865.048584,1046.722900 857.371704,1056.174194 
	C822.711609,1069.013062 789.910828,1084.091675 759.509094,1103.912720 
	C743.988281,1114.031860 729.144897,1125.189941 713.995361,1135.878296 
z"/>
<path fill="#2A483C" opacity="1.000000" stroke="none" 
	d="
M899.714539,543.268066 
	C923.868042,528.878906 947.850342,514.190735 972.241943,500.217102 
	C986.017151,492.325439 1000.465698,485.609161 1015.306030,479.231018 
	C1016.000732,578.330811 1015.946594,676.563049 1016.097595,774.795044 
	C1016.110229,783.027039 1017.465515,791.260498 1018.266602,799.486511 
	C1018.778015,804.738281 1019.915344,809.976685 1019.924500,815.222534 
	C1020.039612,881.154419 1019.998840,947.086609 1020.003845,1013.018677 
	C1020.004089,1016.015015 1019.525513,1019.156799 1020.285767,1021.954895 
	C1020.764954,1023.718994 1023.136841,1024.968872 1023.874878,1026.791748 
	C1011.154846,1027.711426 999.203491,1028.061035 987.287842,1028.911133 
	C957.764587,1031.017456 928.794983,1036.624023 899.995422,1042.355835 
	C899.331055,1031.940430 897.981995,1022.366272 898.108093,1012.811523 
	C899.126465,935.677063 897.283875,858.553650 899.452698,781.384827 
	C901.272339,716.640381 901.714172,651.738220 898.199158,586.926392 
	C897.413696,572.443665 899.143066,557.824463 899.714539,543.268066 
z"/>
<path fill="#2A4A40" opacity="1.000000" stroke="none" 
	d="
M1024.659790,1026.449463 
	C1023.136841,1024.968872 1020.764954,1023.718994 1020.285767,1021.954895 
	C1019.525513,1019.156799 1020.004089,1016.015015 1020.003845,1013.018677 
	C1019.998840,947.086609 1020.039612,881.154419 1019.924500,815.222534 
	C1019.915344,809.976685 1018.778015,804.738281 1018.266602,799.486511 
	C1017.465515,791.260498 1016.110229,783.027039 1016.097595,774.795044 
	C1015.946594,676.563049 1016.000732,578.330811 1016.003235,479.178223 
	C1024.248901,474.203613 1032.492310,470.149353 1042.015869,466.012268 
	C1044.182983,465.373016 1045.069946,464.816589 1045.957031,464.260162 
	C1050.231567,462.195557 1054.506226,460.130951 1060.040527,457.999756 
	C1062.182617,457.391785 1063.064941,456.850311 1063.947144,456.308868 
	C1073.497314,452.206726 1083.047363,448.104584 1093.900146,443.966522 
	C1096.110107,443.390625 1097.017578,442.850677 1097.924927,442.310699 
	C1098.212646,442.113556 1098.500488,441.916382 1099.310913,441.718933 
	C1099.888916,485.694000 1099.975464,529.669312 1099.992798,573.644653 
	C1100.019897,642.274658 1100.026489,710.904724 1099.949707,779.534668 
	C1099.943481,785.001038 1099.881714,790.174316 1104.838989,793.921936 
	C1108.551880,796.728760 1108.006958,800.952942 1108.005737,804.947449 
	C1107.995605,837.596680 1108.000000,870.245911 1108.000000,902.895142 
	C1108.000000,942.540649 1108.041138,982.186279 1107.935181,1021.831482 
	C1107.924805,1025.716553 1107.010376,1029.599121 1105.061279,1034.118286 
	C1101.690552,1034.289795 1099.773804,1033.826050 1097.403076,1032.970947 
	C1095.769165,1032.465210 1094.589478,1032.350708 1092.644531,1032.318604 
	C1089.872437,1032.033203 1087.865845,1031.665527 1085.440552,1030.953369 
	C1084.310303,1030.495850 1083.598755,1030.382812 1082.102295,1030.435181 
	C1078.145508,1030.144653 1074.973633,1029.688599 1071.273315,1028.855225 
	C1069.446777,1028.388550 1068.148682,1028.299072 1066.077393,1028.474121 
	C1061.499512,1028.321777 1057.694946,1027.904907 1053.241211,1027.009033 
	C1046.077637,1026.416138 1039.563110,1026.302246 1032.394287,1026.474365 
	C1029.379761,1026.656738 1027.019775,1026.553101 1024.659790,1026.449463 
z"/>
<path fill="#313E3E" opacity="1.000000" stroke="none" 
	d="
M2240.013916,1065.941650 
	C2244.217041,1057.280640 2244.060791,1048.035645 2244.055176,1038.696899 
	C2243.974121,907.032349 2243.954590,775.367676 2244.117920,643.703308 
	C2244.127197,636.173889 2245.841797,628.646545 2247.305908,620.579956 
	C2265.074707,634.617310 2282.876953,648.572815 2299.383545,663.921753 
	C2321.282471,684.284729 2342.169434,705.735657 2362.926270,727.382202 
	C2354.974854,729.628540 2356.035889,735.538208 2356.028076,740.722900 
	C2355.974365,776.048950 2356.000000,811.375122 2356.000000,846.701294 
	C2356.000000,937.016296 2355.957520,1027.331299 2356.085449,1117.646240 
	C2356.095215,1124.474976 2355.444580,1130.332031 2347.487305,1132.739014 
	C2324.943115,1114.735962 2301.871338,1098.576904 2277.039062,1085.063477 
	C2264.840820,1078.425415 2252.364502,1072.299438 2240.013916,1065.941650 
z"/>
<path fill="#313A39" opacity="1.000000" stroke="none" 
	d="
M2348.055176,1132.993408 
	C2355.444580,1130.332031 2356.095215,1124.474976 2356.085449,1117.646240 
	C2355.957520,1027.331299 2356.000000,937.016296 2356.000000,846.701294 
	C2356.000000,811.375122 2355.974365,776.048950 2356.028076,740.722900 
	C2356.035889,735.538208 2354.974854,729.628540 2363.144287,728.011841 
	C2365.147461,729.028381 2366.368164,730.078308 2367.974609,732.077759 
	C2368.687744,733.491150 2369.115723,733.826172 2369.644531,734.032349 
	C2369.644531,734.032349 2369.989502,734.048828 2370.154297,734.565247 
	C2370.630615,735.514832 2371.031250,735.837280 2371.520996,736.049072 
	C2371.520996,736.049072 2371.980713,736.075867 2372.101562,736.582214 
	C2372.460449,737.448364 2372.781006,737.704529 2373.184326,737.856995 
	C2377.965576,742.927002 2382.746826,747.997009 2387.918457,754.066528 
	C2388.609863,755.507263 2389.003174,755.838867 2389.489014,756.060791 
	C2389.489014,756.060791 2389.971924,756.107483 2390.085449,756.604919 
	C2390.418457,757.436584 2390.712402,757.681702 2391.080322,757.837769 
	C2399.415527,768.045532 2407.750977,778.253357 2415.562744,789.494141 
	C2411.272461,793.004456 2412.014893,796.888672 2412.014404,800.481323 
	C2411.997314,928.064087 2412.004395,1055.646851 2411.982666,1183.229614 
	C2411.981934,1187.615723 2411.870361,1191.637939 2416.381348,1194.567749 
	C2420.959229,1197.541260 2419.584717,1201.139771 2415.411133,1203.973145 
	C2414.621094,1203.107300 2414.332520,1202.459229 2413.897949,1201.414429 
	C2413.458740,1200.513184 2413.047607,1200.137939 2412.283691,1199.840576 
	C2412.048584,1199.789062 2412.125244,1199.314209 2412.020752,1199.103394 
	C2411.916260,1198.892578 2411.281006,1198.211548 2410.678223,1197.792847 
	C2392.697266,1178.735596 2375.318848,1160.097168 2357.752441,1141.128662 
	C2357.233643,1140.394531 2356.817871,1140.117188 2355.673828,1139.741943 
	C2352.705078,1137.342407 2350.380127,1135.167847 2348.055176,1132.993408 
z"/>
<path fill="#2B483A" opacity="1.000000" stroke="none" 
	d="
M899.185547,543.408203 
	C899.143066,557.824463 897.413696,572.443665 898.199158,586.926392 
	C901.714172,651.738220 901.272339,716.640381 899.452698,781.384827 
	C897.283875,858.553650 899.126465,935.677063 898.108093,1012.811523 
	C897.981995,1022.366272 899.331055,1031.940430 899.270325,1042.696533 
	C885.026611,1047.851196 871.509094,1051.814941 857.991577,1055.778687 
	C865.048584,1046.722900 863.597778,1036.099487 864.137085,1025.600220 
	C867.846924,953.377991 865.162354,881.112976 865.995728,808.875244 
	C866.067871,802.623352 866.804382,796.530212 860.495300,791.818481 
	C858.327026,790.199280 858.135803,785.106750 858.102112,781.590820 
	C857.897766,760.261902 858.000061,738.929993 858.000000,717.599121 
	C857.999939,677.603699 858.143921,637.607239 857.872192,597.613647 
	C857.821106,590.086365 856.112549,582.570312 854.611267,574.517090 
	C867.517639,564.694763 880.981567,555.404541 895.562195,545.874146 
	C897.250122,545.362915 897.665588,544.939087 897.925232,544.362427 
	C898.169006,544.091064 898.412781,543.819702 899.185547,543.408203 
M864.031860,783.727234 
	C864.557678,785.274231 864.608704,787.445129 865.687195,788.265930 
	C872.169983,793.199768 872.097961,799.956604 872.081299,807.153809 
	C871.939331,868.481567 872.037415,929.809875 871.929016,991.137756 
	C871.920349,996.059814 870.552429,1000.971558 870.434631,1005.902893 
	C870.189941,1016.142883 870.360779,1026.392822 870.360779,1036.494385 
	C875.492798,1039.071777 878.227966,1037.015381 879.203064,1032.920044 
	C880.034973,1029.425659 879.970764,1025.671509 879.971802,1022.032349 
	C880.005920,902.709229 880.000000,783.386169 880.000000,664.063049 
	C880.000000,635.398865 880.018127,606.734619 879.973877,578.070496 
	C879.969055,574.979065 879.602051,571.888184 879.386108,568.533936 
	C866.862427,572.137085 863.550171,579.104065 863.677673,590.971924 
	C864.361450,654.625793 864.002441,718.290894 864.031860,783.727234 
z"/>
<path fill="#313E3E" opacity="1.000000" stroke="none" 
	d="
M2415.912598,1204.190918 
	C2419.584717,1201.139771 2420.959229,1197.541260 2416.381348,1194.567749 
	C2411.870361,1191.637939 2411.981934,1187.615723 2411.982666,1183.229614 
	C2412.004395,1055.646851 2411.997314,928.064087 2412.014404,800.481323 
	C2412.014893,796.888672 2411.272461,793.004456 2415.782227,790.154785 
	C2421.661621,795.358215 2426.798340,800.933899 2432.119141,807.165833 
	C2428.072266,811.263794 2427.655762,815.051880 2429.848633,820.155884 
	C2431.478271,823.947815 2431.904053,828.494812 2431.915039,832.708008 
	C2432.046875,882.999146 2430.364502,933.356567 2432.386475,983.566711 
	C2435.374756,1057.778198 2432.816650,1131.958252 2433.962646,1206.140015 
	C2434.042725,1211.323120 2435.096436,1217.078857 2427.481689,1219.781250 
	C2424.110107,1216.350220 2422.064209,1213.121948 2419.858887,1209.495361 
	C2419.404053,1208.590698 2419.000732,1208.192993 2418.253906,1207.840332 
	C2418.017334,1207.776367 2418.116455,1207.296753 2418.020020,1207.129883 
	C2417.923340,1206.962891 2417.473145,1206.344116 2416.905029,1205.934814 
	C2416.195557,1205.080566 2416.053955,1204.635742 2415.912598,1204.190918 
z"/>
<path fill="#2B483A" opacity="1.000000" stroke="none" 
	d="
M778.316528,2406.427490 
	C782.481934,2402.472412 783.742981,2404.788574 783.821777,2409.860107 
	C782.043640,2409.399170 780.320740,2408.198975 778.316528,2406.427490 
z"/>
<path fill="#2A483C" opacity="1.000000" stroke="none" 
	d="
M1063.403320,456.274963 
	C1063.064941,456.850311 1062.182617,457.391785 1060.763062,457.975708 
	C1061.103638,457.425812 1061.981567,456.833435 1063.403320,456.274963 
z"/>
<path fill="#2A4B41" opacity="1.000000" stroke="none" 
	d="
M1097.371948,442.261292 
	C1097.017578,442.850677 1096.110107,443.390625 1094.652100,443.945618 
	C1095.007202,443.377747 1095.913086,442.794800 1097.371948,442.261292 
z"/>
<path fill="#2A483C" opacity="1.000000" stroke="none" 
	d="
M1045.406982,464.230469 
	C1045.069946,464.816589 1044.182983,465.373016 1042.751587,465.973328 
	C1043.090454,465.411713 1043.973755,464.806244 1045.406982,464.230469 
z"/>
<path fill="#294D47" opacity="1.000000" stroke="none" 
	d="
M1866.587402,2623.374023 
	C1866.467773,2622.786621 1866.975464,2622.433838 1868.090088,2622.241699 
	C1868.274170,2622.863770 1867.779907,2623.265869 1866.587402,2623.374023 
z"/>
<path fill="#313E3E" opacity="1.000000" stroke="none" 
	d="
M2391.059082,757.506897 
	C2390.712402,757.681702 2390.418457,757.436584 2390.062744,756.846436 
	C2390.430420,756.532593 2390.800781,756.727844 2391.059082,757.506897 
z"/>
<path fill="#2A4A40" opacity="1.000000" stroke="none" 
	d="
M1004.128601,2554.451904 
	C1004.487061,2554.106445 1004.977173,2554.308350 1005.645996,2554.995605 
	C1005.893188,2555.314453 1005.032227,2555.329102 1005.032227,2555.329102 
	C1005.032227,2555.329102 1004.328796,2554.832520 1004.128601,2554.451904 
z"/>
<path fill="#2B4A46" opacity="1.000000" stroke="none" 
	d="
M2262.359863,2406.098633 
	C2262.283203,2405.895264 2262.731934,2405.835449 2262.957764,2405.818848 
	C2263.183594,2405.802002 2263.016113,2406.347412 2263.016113,2406.347412 
	C2263.016113,2406.347412 2262.436768,2406.302246 2262.359863,2406.098633 
z"/>
<path fill="#2B4A46" opacity="1.000000" stroke="none" 
	d="
M2264.270508,2405.175049 
	C2264.121094,2404.825439 2264.419922,2404.487549 2265.104736,2404.067383 
	C2265.372070,2404.454834 2265.114746,2404.855469 2264.270508,2405.175049 
z"/>
<path fill="#2A483C" opacity="1.000000" stroke="none" 
	d="
M897.442383,544.380493 
	C897.665588,544.939087 897.250122,545.362915 896.241943,545.745728 
	C895.921387,545.158752 896.306213,544.672424 897.442383,544.380493 
z"/>
<path fill="#2B4A46" opacity="1.000000" stroke="none" 
	d="
M681.639526,722.680054 
	C681.867126,723.053589 681.617126,723.414612 680.960876,723.853760 
	C680.596252,723.457275 680.798645,723.035889 681.639526,722.680054 
z"/>
<path fill="#2B4A46" opacity="1.000000" stroke="none" 
	d="
M679.715637,724.756348 
	C679.901367,725.088379 679.684937,725.385681 679.126709,725.734131 
	C678.813904,725.378235 678.990051,725.023621 679.715637,724.756348 
z"/>
<path fill="#313E3E" opacity="1.000000" stroke="none" 
	d="
M2369.569580,733.589294 
	C2369.115723,733.826172 2368.687744,733.491150 2368.179688,732.657593 
	C2368.665527,732.281677 2369.164062,732.567810 2369.569580,733.589294 
z"/>
<path fill="#313E3E" opacity="1.000000" stroke="none" 
	d="
M2371.450195,735.628662 
	C2371.031250,735.837280 2370.630615,735.514832 2370.139404,734.737183 
	C2370.590088,734.390747 2371.063232,734.662659 2371.450195,735.628662 
z"/>
<path fill="#313E3E" opacity="1.000000" stroke="none" 
	d="
M2373.153320,737.506226 
	C2372.781006,737.704529 2372.460449,737.448364 2372.081055,736.811646 
	C2372.471924,736.477661 2372.866211,736.684570 2373.153320,737.506226 
z"/>
<path fill="#313E3E" opacity="1.000000" stroke="none" 
	d="
M2389.421875,755.643066 
	C2389.003174,755.838867 2388.609863,755.507263 2388.140381,754.715576 
	C2388.593994,754.392517 2389.054932,754.679260 2389.421875,755.643066 
z"/>
<path fill="#FDFEFD" opacity="1.000000" stroke="none" 
	d="
M2420.018066,1209.893555 
	C2422.064209,1213.121948 2424.110107,1216.350220 2426.676270,1219.943115 
	C2440.554932,1242.152954 2453.382812,1264.264160 2462.999268,1288.101196 
	C2479.199219,1328.257202 2488.520020,1369.806152 2489.722656,1413.200073 
	C2492.489990,1513.055298 2457.656250,1598.593750 2391.419922,1673.047119 
	C2373.692139,1689.550415 2356.891846,1706.206177 2338.663086,1721.115601 
	C2307.898438,1746.278076 2273.402344,1765.595215 2236.583008,1782.300049 
	C2208.249512,1793.848022 2180.306641,1804.395386 2151.066895,1810.774292 
	C2131.317871,1815.082886 2111.333252,1818.310059 2089.937012,1822.170410 
	C2086.620361,1822.796143 2084.820557,1823.272339 2083.020752,1823.748535 
	C2079.203857,1823.880005 2075.387207,1824.011353 2070.764648,1824.347412 
	C2053.726318,1825.126221 2037.489380,1826.288818 2021.262085,1826.166016 
	C1968.656738,1825.768433 1918.976196,1812.463867 1871.260620,1791.002563 
	C1864.613159,1788.012695 1858.030762,1784.878418 1850.700317,1781.994141 
	C1843.593262,1778.258057 1837.313354,1774.146729 1830.797607,1770.450684 
	C1786.865601,1745.529907 1746.838989,1715.247925 1709.065552,1681.880981 
	C1652.512939,1631.925293 1601.710693,1576.434570 1553.040771,1518.943481 
	C1509.149658,1467.097534 1466.316895,1414.340454 1421.766602,1363.072021 
	C1374.750488,1308.965942 1324.052246,1258.433105 1266.480957,1213.362305 
	C1257.544312,1206.615845 1249.693726,1200.483276 1241.580688,1194.719849 
	C1201.077637,1165.946167 1158.306885,1141.474731 1110.443970,1126.998535 
	C1092.048218,1121.434937 1073.430664,1116.628052 1053.337158,1115.972778 
	C1050.768677,1115.743896 1048.876465,1115.763916 1046.209717,1115.311523 
	C1033.283325,1115.159058 1021.131653,1115.478882 1008.158691,1115.511963 
	C988.327454,1117.459595 969.098877,1118.575806 950.368164,1122.238403 
	C931.051086,1126.015747 912.218506,1132.271362 892.442505,1137.473145 
	C870.986023,1144.487305 850.664551,1152.385132 831.229187,1163.968872 
	C788.874634,1186.286987 752.477722,1215.114990 723.066223,1252.101562 
	C667.103638,1322.477295 646.460938,1401.858032 666.200867,1490.147339 
	C681.033447,1556.487915 717.211304,1610.281006 768.283264,1654.396973 
	C785.170532,1668.984009 802.990417,1682.353149 823.519470,1692.945679 
	C848.122314,1707.019531 873.131226,1718.533691 900.681152,1726.012573 
	C916.504333,1729.936646 931.514526,1734.205444 946.798767,1736.945801 
	C972.950745,1741.634644 999.369446,1743.734863 1026.881104,1741.867432 
	C1047.241455,1740.019653 1066.881226,1739.086304 1086.126831,1735.825439 
	C1155.216675,1724.118896 1214.076050,1691.583740 1265.973389,1645.426758 
	C1275.888672,1636.600464 1286.100586,1628.082153 1295.659302,1618.885254 
	C1317.485718,1597.885742 1338.925537,1576.484863 1360.713867,1555.445312 
	C1363.423218,1552.829102 1367.071899,1550.370728 1370.660156,1549.612183 
	C1393.744873,1544.732666 1416.933105,1540.342773 1440.091309,1535.811279 
	C1441.317871,1535.571289 1442.578613,1535.505737 1445.182373,1535.198853 
	C1443.168213,1545.090698 1441.416138,1554.072021 1439.500366,1563.018311 
	C1436.369141,1577.640625 1433.267578,1592.272217 1429.827759,1606.822998 
	C1429.106934,1609.872070 1427.602783,1613.241455 1425.398560,1615.358887 
	C1389.408203,1649.935425 1355.387207,1686.588501 1316.805664,1718.438110 
	C1289.274170,1741.165649 1260.173340,1761.559937 1228.223267,1778.902832 
	C1208.304688,1787.732178 1189.091064,1796.839355 1169.220215,1804.164429 
	C1130.360596,1818.489502 1089.957886,1825.912842 1048.636841,1828.407959 
	C1042.339355,1828.788208 1036.052002,1829.339722 1028.890625,1830.015137 
	C1013.543335,1829.921387 999.065613,1829.624390 982.972290,1829.131348 
	C976.269348,1828.713379 971.181885,1828.491577 966.094421,1828.269897 
	C958.039795,1827.438599 949.940918,1826.903320 941.940796,1825.707275 
	C929.631470,1823.866699 917.084534,1822.648560 905.177429,1819.267944 
	C870.388550,1809.390869 835.995056,1798.224609 802.744263,1782.007812 
	C798.291870,1779.825195 794.606567,1777.623291 790.833496,1775.583496 
	C711.579224,1732.738403 649.497864,1672.785889 608.875183,1591.807983 
	C580.385925,1535.017090 567.386780,1474.672852 570.321716,1411.148193 
	C571.881409,1377.388550 578.779114,1344.601807 589.141418,1312.374146 
	C594.431580,1295.921143 600.650757,1279.919922 608.510193,1264.705811 
	C624.694031,1233.377441 644.092468,1204.098877 668.640747,1178.551025 
	C679.191467,1167.570801 690.064026,1156.892944 701.004333,1146.298706 
	C704.033081,1143.365601 707.829468,1141.225098 712.106445,1138.080200 
	C713.502319,1137.124268 713.803284,1136.644653 713.842224,1136.000610 
	C713.842224,1136.000610 713.974792,1136.010254 713.985107,1135.944336 
	C729.144897,1125.189941 743.988281,1114.031860 759.509094,1103.912720 
	C789.910828,1084.091675 822.711609,1069.013062 857.371704,1056.174194 
	C871.509094,1051.814941 885.026611,1047.851196 899.269165,1043.546753 
	C928.794983,1036.624023 957.764587,1031.017456 987.287842,1028.911133 
	C999.203491,1028.061035 1011.154846,1027.711426 1023.874878,1026.791748 
	C1027.019775,1026.553101 1029.379761,1026.656738 1033.166382,1026.912109 
	C1041.025391,1027.205322 1047.457886,1027.346802 1053.890259,1027.488281 
	C1057.694946,1027.904907 1061.499512,1028.321777 1066.579102,1028.927734 
	C1069.169922,1029.155640 1070.485840,1029.194214 1071.801758,1029.232666 
	C1074.973633,1029.688599 1078.145508,1030.144653 1082.476807,1030.873535 
	C1084.377319,1031.196899 1085.118164,1031.247314 1085.859131,1031.297729 
	C1087.865845,1031.665527 1089.872437,1032.033203 1093.101318,1032.713745 
	C1095.501343,1033.138550 1096.679199,1033.250366 1097.857178,1033.362183 
	C1099.773804,1033.826050 1101.690552,1034.289795 1104.347168,1034.666626 
	C1123.198730,1040.066650 1141.512329,1044.970459 1159.379150,1051.163574 
	C1195.284546,1063.609253 1228.431641,1081.770020 1261.286865,1101.887695 
	C1288.724854,1121.731934 1316.268311,1140.507446 1342.058960,1161.442139 
	C1401.171387,1209.424561 1453.778687,1264.211548 1503.379028,1321.783325 
	C1549.657593,1375.499756 1594.604248,1430.361328 1640.415405,1484.483398 
	C1680.684082,1532.057495 1723.483643,1577.220825 1771.364014,1619.180176 
	C1800.264282,1644.661377 1829.732910,1667.289551 1861.629272,1686.633301 
	C1884.636475,1700.585815 1908.338135,1713.156860 1934.691772,1721.955566 
	C1985.134277,1741.018066 2036.185059,1742.624878 2088.729980,1733.836670 
	C2090.350586,1733.687500 2091.262451,1733.442871 2092.755371,1733.316895 
	C2094.416504,1733.028564 2095.496338,1732.621338 2097.384766,1732.302002 
	C2131.376953,1727.162476 2163.384766,1717.809692 2194.292725,1704.720459 
	C2213.172607,1696.724854 2231.772461,1688.138916 2249.202393,1675.893677 
	C2263.745117,1665.718506 2278.152588,1656.466187 2291.581787,1645.962769 
	C2309.473633,1631.968506 2325.142822,1615.548340 2339.238770,1597.712036 
	C2373.505859,1554.352295 2394.993408,1505.563110 2399.853516,1450.250488 
	C2406.465332,1374.994995 2384.344238,1308.320557 2338.168457,1249.069946 
	C2312.184570,1215.728882 2279.670166,1190.092529 2243.621582,1167.480835 
	C2213.455322,1149.076538 2181.760010,1135.654663 2148.350342,1126.453613 
	C2126.629395,1120.471558 2104.675537,1115.322754 2081.417236,1113.940430 
	C2079.534668,1113.734863 2078.254883,1113.786377 2076.189209,1113.401123 
	C2067.602539,1112.663940 2059.801514,1112.363892 2051.089844,1111.822266 
	C2026.902710,1112.506836 2003.494873,1112.230469 1980.393677,1114.757202 
	C1963.378784,1116.618286 1946.764404,1122.142212 1929.214355,1125.994751 
	C1927.494263,1126.204102 1926.515015,1126.401855 1925.571045,1126.708618 
	C1855.887695,1149.347656 1801.350098,1194.109131 1751.585693,1245.840820 
	C1744.771729,1252.626221 1737.880493,1259.335938 1731.158813,1266.211670 
	C1714.634644,1283.115234 1698.188843,1300.095215 1680.057007,1318.746460 
	C1680.807373,1294.219238 1685.631836,1271.995117 1686.657471,1248.088257 
	C1663.268799,1251.721924 1640.483154,1255.261719 1616.989868,1258.911621 
	C1617.466797,1257.397949 1617.479126,1256.408936 1617.979492,1255.905884 
	C1653.927734,1219.771729 1689.069336,1182.779907 1726.121216,1147.812744 
	C1768.796753,1107.538330 1816.888550,1074.787598 1871.859863,1053.062744 
	C1880.827515,1049.518677 1890.030396,1046.570068 1899.640381,1042.839600 
	C1924.200073,1036.230225 1948.259888,1030.395630 1972.983398,1027.394653 
	C2008.090576,1023.133423 2043.189087,1022.671570 2079.206055,1025.399414 
	C2115.406250,1029.169067 2150.477783,1034.817505 2184.370850,1045.969116 
	C2202.637695,1051.979248 2220.504639,1059.204102 2239.282959,1065.911377 
	C2252.364502,1072.299438 2264.840820,1078.425415 2277.039062,1085.063477 
	C2301.871338,1098.576904 2324.943115,1114.735962 2347.487305,1132.739014 
	C2350.380127,1135.167847 2352.705078,1137.342407 2355.774902,1140.143311 
	C2356.844971,1141.304810 2357.318604,1141.534424 2357.940430,1141.458618 
	C2375.318848,1160.097168 2392.697266,1178.735596 2410.633789,1198.076660 
	C2411.363770,1199.199463 2411.675049,1199.377808 2412.125244,1199.314209 
	C2412.125244,1199.314209 2412.048584,1199.789062 2412.338623,1200.287842 
	C2412.925781,1201.369263 2413.397461,1201.710815 2414.044189,1201.811035 
	C2414.332520,1202.459229 2414.621094,1203.107300 2415.411133,1203.973145 
	C2416.053955,1204.635742 2416.195557,1205.080566 2416.818848,1206.174316 
	C2417.436523,1207.214722 2417.708252,1207.372559 2418.116455,1207.296753 
	C2418.116455,1207.296753 2418.017334,1207.776367 2418.305908,1208.296387 
	C2418.893311,1209.407837 2419.367920,1209.766846 2420.018066,1209.893555 
z"/>
<path fill="#2A4B41" opacity="1.000000" stroke="none" 
	d="
M1265.950195,1644.618042 
	C1214.076050,1691.583740 1155.216675,1724.118896 1086.126831,1735.825439 
	C1066.881226,1739.086304 1047.241455,1740.019653 1026.883423,1741.028076 
	C1025.322998,1729.792847 1024.014771,1719.545044 1024.098755,1709.308472 
	C1025.068359,1591.062256 1021.590759,1472.790771 1026.073242,1354.568237 
	C1026.328979,1347.823242 1027.641968,1341.118530 1028.605835,1333.225464 
	C1024.024048,1327.034302 1024.009766,1327.034302 1024.003174,1317.175415 
	C1023.991760,1300.175415 1024.353149,1283.166382 1023.914001,1266.177734 
	C1023.312988,1242.929321 1024.614502,1219.723145 1022.456726,1196.392212 
	C1020.408691,1174.248413 1021.907837,1151.765625 1022.087280,1129.433838 
	C1022.136414,1123.311279 1026.693115,1119.767212 1032.627686,1120.529663 
	C1033.920410,1120.695801 1035.122925,1121.526367 1036.417114,1121.725830 
	C1041.888916,1122.569946 1050.865234,1119.703369 1054.013428,1116.221680 
	C1073.430664,1116.628052 1092.048218,1121.434937 1110.443970,1126.998535 
	C1158.306885,1141.474731 1201.077637,1165.946167 1241.580688,1194.719849 
	C1249.693726,1200.483276 1257.544312,1206.615845 1265.823975,1213.174072 
	C1265.421387,1223.322998 1264.222656,1232.869751 1264.097412,1242.430542 
	C1263.796753,1265.379395 1264.075439,1288.335449 1263.936401,1311.287354 
	C1263.908569,1315.878174 1263.063232,1320.463989 1262.593140,1325.052002 
	C1262.458374,1326.365845 1262.151123,1327.686035 1262.205566,1328.991577 
	C1262.770508,1342.546997 1263.893311,1356.099243 1263.918579,1369.654053 
	C1264.078613,1455.809937 1263.966553,1541.966187 1264.082520,1628.122192 
	C1264.089600,1633.352051 1265.284668,1638.580322 1265.950195,1644.618042 
z"/>
<path fill="#FDFEFD" opacity="1.000000" stroke="none" 
	d="
M1859.092285,1955.331299 
	C1907.260132,1985.043579 1954.489258,2014.797852 2002.517578,2045.055664 
	C2000.110474,2046.919434 1998.281006,2048.620361 1996.196045,2049.907959 
	C1952.650513,2076.800049 1909.041870,2103.590820 1865.561401,2130.587646 
	C1861.378418,2133.184814 1857.296753,2134.198730 1852.476074,2134.178223 
	C1818.217407,2134.031738 1783.957886,2134.072266 1748.747192,2134.053711 
	C1748.019897,2133.463623 1748.070190,2132.662598 1748.493408,2132.313232 
	C1766.031860,2117.824463 1772.588745,2098.902588 1772.045288,2076.599121 
	C1771.534668,2055.639648 1771.928345,2034.658081 1771.939453,2013.686157 
	C1771.952271,1989.586914 1778.634521,1981.762085 1803.575439,1977.644165 
	C1803.575439,1970.751953 1803.575439,1963.623901 1803.575439,1955.373291 
	C1822.446899,1955.373291 1840.300415,1955.373291 1859.092285,1955.331299 
z"/>
<path fill="#FCFDFD" opacity="1.000000" stroke="none" 
	d="
M1442.000000,2134.122803 
	C1411.052002,2134.122559 1381.103882,2134.122559 1350.472412,2134.122559 
	C1350.472412,2128.514893 1350.472412,2123.405762 1350.472412,2117.356934 
	C1367.194214,2125.438477 1384.200806,2127.217285 1401.491455,2120.155762 
	C1413.915527,2115.081543 1423.494141,2106.598389 1430.690430,2095.336914 
	C1447.057861,2069.723877 1445.377686,2035.546631 1426.588379,2012.077148 
	C1408.314697,1989.251587 1383.435669,1983.734497 1349.782349,1995.783813 
	C1349.782349,1988.925415 1349.782349,1982.459961 1349.782349,1975.994507 
	C1349.782349,1969.416626 1349.782349,1962.838623 1349.782349,1955.828613 
	C1454.636597,1955.828613 1558.448364,1955.828613 1663.587769,1955.828613 
	C1661.434204,1958.088257 1660.022095,1959.667114 1658.508667,1961.142090 
	C1646.511719,1972.833740 1639.740601,1986.967041 1639.517090,2003.773560 
	C1639.193726,2028.088745 1639.321899,2052.409668 1639.203125,2076.728271 
	C1639.185303,2080.380371 1639.208130,2084.084961 1638.634033,2087.672852 
	C1636.611938,2100.312012 1628.315674,2108.522217 1615.714600,2110.666992 
	C1613.436035,2111.054688 1611.126953,2111.262939 1607.723877,2111.694824 
	C1607.723877,2118.848633 1607.723877,2125.969482 1607.723877,2134.123047 
	C1552.061890,2134.123047 1497.531006,2134.123047 1442.000000,2134.122803 
M1522.556274,2124.431396 
	C1542.106201,2126.740723 1558.623169,2120.325684 1572.186035,2106.454590 
	C1597.957397,2080.097656 1597.716431,2035.222290 1571.909302,2008.832031 
	C1546.370239,1982.715698 1506.343628,1984.509277 1483.259644,2012.849487 
	C1470.100586,2029.004883 1465.556885,2047.741089 1468.282837,2068.029785 
	C1472.854004,2102.051270 1498.478516,2121.957275 1522.556274,2124.431396 
z"/>
<path fill="#FFFFFF" opacity="1.000000" stroke="none" 
	d="
M1316.456299,2133.113281 
	C1247.848389,2134.039062 1179.409424,2134.039062 1110.970459,2134.039062 
	C1110.794189,2133.441406 1110.617798,2132.843506 1110.441406,2132.245850 
	C1150.534180,2103.317627 1190.627075,2074.389404 1232.098022,2044.466919 
	C1191.471558,2015.345825 1151.571899,1986.745728 1111.014526,1957.981445 
	C1112.725342,1953.394653 1116.899414,1955.532715 1120.146973,1955.512085 
	C1151.471191,1955.312988 1182.797119,1955.385498 1214.122559,1955.384277 
	C1244.114990,1955.383179 1274.107422,1955.386841 1304.099854,1955.388428 
	C1307.747192,1955.388672 1311.394531,1955.388550 1314.744629,1955.388550 
	C1315.306763,1956.007202 1315.536255,1956.249512 1315.754028,1956.502075 
	C1315.964478,1956.746216 1316.340820,1957.000732 1316.341309,1957.251099 
	C1316.453491,2015.563110 1316.538940,2073.875244 1316.456299,2133.113281 
z"/>
<path fill="#FCFDFD" opacity="1.000000" stroke="none" 
	d="
M1701.777344,1971.461792 
	C1701.778442,1965.928467 1701.778442,1961.321045 1701.778442,1956.037842 
	C1723.122925,1956.037842 1743.802612,1956.037842 1766.064209,1956.037842 
	C1764.032715,1957.986938 1762.974365,1959.039795 1761.876465,1960.049805 
	C1748.415161,1972.432983 1741.549072,1987.749023 1741.517456,2006.056274 
	C1741.474487,2031.021362 1741.636841,2055.987793 1741.435059,2080.951172 
	C1741.303955,2097.169922 1732.793945,2107.947021 1718.666870,2110.524658 
	C1716.068848,2110.998535 1713.424194,2111.217529 1709.704346,2111.694824 
	C1709.704346,2118.845215 1709.704346,2125.963867 1709.704346,2133.583984 
	C1687.862061,2133.583984 1667.147461,2133.583984 1644.950439,2133.583984 
	C1647.074951,2131.669922 1648.216187,2130.662354 1649.335083,2129.630371 
	C1663.075684,2116.956299 1669.708984,2101.157471 1669.767578,2082.577637 
	C1669.846313,2057.612793 1669.620117,2032.645874 1669.850708,2007.682983 
	C1670.000732,1991.442383 1678.663208,1981.619263 1694.534058,1978.796875 
	C1696.486450,1978.449829 1698.468628,1978.270020 1701.049438,1977.932617 
	C1701.290894,1976.091309 1701.533569,1974.239502 1701.777344,1971.461792 
z"/>
<path fill="#FCFDFD" opacity="1.000000" stroke="none" 
	d="
M1363.089355,2083.400391 
	C1350.217285,2074.285400 1345.870972,2055.197754 1353.849976,2040.722290 
	C1359.457031,2030.550049 1368.096558,2024.532471 1379.596924,2024.707397 
	C1391.510986,2024.888672 1400.548462,2031.270874 1405.443481,2042.166626 
	C1410.691650,2053.848145 1410.156006,2065.615723 1402.529663,2076.254150 
	C1395.787109,2085.659668 1386.383423,2090.031982 1374.766357,2088.012695 
	C1370.954102,2087.350098 1367.388184,2085.269531 1363.089355,2083.400391 
z"/>
<path fill="#2B4A46" opacity="1.000000" stroke="none" 
	d="
M1752.397339,1245.972534 
	C1801.350098,1194.109131 1855.887695,1149.347656 1925.571045,1126.708618 
	C1926.515015,1126.401855 1927.494263,1126.204102 1929.314209,1126.765869 
	C1933.376709,1133.606689 1934.091064,1140.013184 1934.087524,1146.819214 
	C1933.985474,1338.412720 1934.013184,1530.006104 1934.019653,1721.599609 
	C1908.338135,1713.156860 1884.636475,1700.585815 1861.629272,1686.633301 
	C1829.732910,1667.289551 1800.264282,1644.661377 1772.004517,1619.451172 
	C1772.225586,1614.798828 1771.714844,1611.678101 1768.022705,1608.452637 
	C1761.191650,1602.484985 1757.653442,1595.112671 1757.737427,1585.041748 
	C1758.259033,1522.515381 1758.009888,1459.982300 1757.984619,1397.451538 
	C1757.982056,1391.110229 1757.480835,1384.886963 1763.798218,1380.450073 
	C1765.421875,1379.309570 1765.810303,1375.716919 1765.901489,1373.219482 
	C1766.168091,1365.911621 1765.880005,1358.585449 1766.034668,1351.271240 
	C1766.176392,1344.569946 1766.055176,1338.428833 1760.888306,1332.788086 
	C1758.425659,1330.099365 1758.168091,1324.755127 1758.118286,1320.599243 
	C1757.862549,1299.315308 1758.033203,1278.026489 1757.971313,1256.739624 
	C1757.959229,1252.569336 1759.091675,1247.718750 1752.397339,1245.972534 
z"/>
<path fill="#2C4738" opacity="1.000000" stroke="none" 
	d="
M713.468567,1136.159912 
	C713.803284,1136.644653 713.502319,1137.124268 712.502136,1137.494873 
	C712.276062,1137.029175 712.619324,1136.618896 713.468567,1136.159912 
z"/>
<path fill="#2A4A40" opacity="1.000000" stroke="none" 
	d="
M966.696045,1828.805176 
	C971.181885,1828.491577 976.269348,1828.713379 982.110657,1829.348633 
	C977.675537,1829.621582 972.486572,1829.481079 966.696045,1828.805176 
z"/>
<path fill="#2D4844" opacity="1.000000" stroke="none" 
	d="
M2083.751465,1823.807861 
	C2084.820557,1823.272339 2086.620361,1822.796143 2089.111816,1822.430176 
	C2088.029785,1822.982788 2086.256104,1823.425049 2083.751465,1823.807861 
z"/>
<path fill="#313A39" opacity="1.000000" stroke="none" 
	d="
M2554.000000,1260.000000 
	C2554.000000,1278.666260 2554.016357,1296.332520 2553.982422,1313.998779 
	C2553.977295,1316.653198 2554.356445,1319.562134 2553.402100,1321.876953 
	C2552.696533,1323.588867 2550.239746,1325.227539 2548.323975,1325.572998 
	C2546.952393,1325.820312 2544.588867,1324.230225 2543.741943,1322.816528 
	C2542.616699,1320.938477 2542.220215,1318.454346 2542.077148,1316.194702 
	C2541.825684,1312.210571 2542.000488,1308.199219 2542.000488,1304.199341 
	C2542.000000,1210.201416 2542.000000,1116.203613 2542.000000,1022.205750 
	C2542.000000,1019.872498 2541.938965,1017.537170 2542.013184,1015.206299 
	C2542.281738,1006.768311 2542.964844,1006.221191 2552.238281,1006.789612 
	C2555.470947,1048.823730 2553.660889,1090.929932 2553.938965,1133.003296 
	C2554.216553,1175.000488 2554.000000,1217.000977 2554.000000,1260.000000 
z"/>
<path fill="#2A4B41" opacity="1.000000" stroke="none" 
	d="
M1053.241211,1027.009033 
	C1047.457886,1027.346802 1041.025391,1027.205322 1033.820801,1026.626221 
	C1039.563110,1026.302246 1046.077637,1026.416138 1053.241211,1027.009033 
z"/>
<path fill="#2A4B41" opacity="1.000000" stroke="none" 
	d="
M1071.273315,1028.855347 
	C1070.485840,1029.194214 1069.169922,1029.155640 1067.352295,1028.663330 
	C1068.148682,1028.299072 1069.446777,1028.388550 1071.273315,1028.855347 
z"/>
<path fill="#2A4B41" opacity="1.000000" stroke="none" 
	d="
M1097.403076,1032.970947 
	C1096.679199,1033.250366 1095.501343,1033.138550 1093.866577,1032.631348 
	C1094.589478,1032.350708 1095.769165,1032.465210 1097.403076,1032.970947 
z"/>
<path fill="#2A4B41" opacity="1.000000" stroke="none" 
	d="
M1085.440552,1030.953369 
	C1085.118164,1031.247314 1084.377319,1031.196899 1083.261719,1030.708252 
	C1083.598755,1030.382812 1084.310303,1030.495850 1085.440552,1030.953369 
z"/>
<path fill="#2F4341" opacity="1.000000" stroke="none" 
	d="
M2413.897949,1201.414429 
	C2413.397461,1201.710815 2412.925781,1201.369263 2412.573730,1200.339355 
	C2413.047607,1200.137939 2413.458740,1200.513184 2413.897949,1201.414429 
z"/>
<path fill="#2F4341" opacity="1.000000" stroke="none" 
	d="
M2412.020752,1199.103394 
	C2411.675049,1199.377808 2411.363770,1199.199463 2411.236328,1198.495361 
	C2411.281006,1198.211548 2411.916260,1198.892578 2412.020752,1199.103394 
z"/>
<path fill="#313E3E" opacity="1.000000" stroke="none" 
	d="
M2357.752441,1141.128662 
	C2357.318604,1141.534424 2356.844971,1141.304810 2356.418457,1140.368286 
	C2356.817871,1140.117188 2357.233643,1140.394531 2357.752441,1141.128662 
z"/>
<path fill="#2A483C" opacity="1.000000" stroke="none" 
	d="
M864.017822,782.839661 
	C864.002441,718.290894 864.361450,654.625793 863.677673,590.971924 
	C863.550171,579.104065 866.862427,572.137085 879.386108,568.533936 
	C879.602051,571.888184 879.969055,574.979065 879.973877,578.070496 
	C880.018127,606.734619 880.000000,635.398865 880.000000,664.063049 
	C880.000000,783.386169 880.005920,902.709229 879.971802,1022.032349 
	C879.970764,1025.671509 880.034973,1029.425659 879.203064,1032.920044 
	C878.227966,1037.015381 875.492798,1039.071777 870.360779,1036.494385 
	C870.360779,1026.392822 870.189941,1016.142883 870.434631,1005.902893 
	C870.552429,1000.971558 871.920349,996.059814 871.929016,991.137756 
	C872.037415,929.809875 871.939331,868.481567 872.081299,807.153809 
	C872.097961,799.956604 872.169983,793.199768 865.687195,788.265930 
	C864.608704,787.445129 864.557678,785.274231 864.017822,782.839661 
z"/>
<path fill="#2F4341" opacity="1.000000" stroke="none" 
	d="
M2419.858887,1209.495361 
	C2419.367920,1209.766846 2418.893311,1209.407837 2418.542480,1208.360352 
	C2419.000732,1208.192993 2419.404053,1208.590698 2419.858887,1209.495361 
z"/>
<path fill="#2F4341" opacity="1.000000" stroke="none" 
	d="
M2418.020020,1207.129883 
	C2417.708252,1207.372559 2417.436523,1207.214722 2417.386963,1206.583740 
	C2417.473145,1206.344116 2417.923340,1206.962891 2418.020020,1207.129883 
z"/>
<path fill="#2F4341" opacity="1.000000" stroke="none" 
	d="
M2092.174072,1733.198242 
	C2091.262451,1733.442871 2090.350586,1733.687500 2088.612305,1733.081055 
	C2084.350098,1727.776245 2083.863281,1722.707886 2083.927979,1717.222290 
	C2085.281982,1601.738159 2081.615479,1486.229858 2085.814209,1370.750366 
	C2086.475342,1352.565674 2084.165527,1334.293335 2084.091797,1316.057983 
	C2083.848389,1255.773682 2083.998535,1195.487793 2084.004639,1135.202515 
	C2084.004883,1132.539062 2083.302246,1129.547241 2084.267822,1127.279053 
	C2086.435059,1122.187256 2084.341309,1118.274902 2082.020020,1114.197632 
	C2104.675537,1115.322754 2126.629395,1120.471558 2148.350342,1126.453613 
	C2181.760010,1135.654663 2213.455322,1149.076538 2243.612793,1168.368408 
	C2243.339355,1176.050903 2242.117676,1182.285767 2242.095947,1188.524780 
	C2241.931885,1235.455078 2241.934570,1282.386475 2242.148926,1329.316406 
	C2242.164307,1332.682495 2243.297852,1337.182495 2245.614258,1339.144897 
	C2249.552490,1342.481079 2250.033203,1346.115112 2250.030518,1350.568848 
	C2249.987061,1422.130127 2249.968750,1493.691406 2250.060791,1565.252563 
	C2250.068115,1570.833130 2248.764404,1575.525024 2245.257324,1580.004028 
	C2243.396484,1582.380615 2242.168945,1585.924805 2242.138916,1588.956787 
	C2241.894775,1613.584717 2242.013184,1638.216187 2241.992676,1662.846558 
	C2241.988037,1668.441528 2243.002686,1673.478516 2248.631592,1676.259521 
	C2231.772461,1688.138916 2213.172607,1696.724854 2194.292725,1704.720459 
	C2163.384766,1717.809692 2131.376953,1727.162476 2096.795410,1732.243286 
	C2094.322754,1732.463867 2093.248535,1732.831055 2092.174072,1733.198242 
z"/>
<path fill="#2D4743" opacity="1.000000" stroke="none" 
	d="
M2081.417236,1113.940430 
	C2084.341309,1118.274902 2086.435059,1122.187256 2084.267822,1127.279053 
	C2083.302246,1129.547241 2084.004883,1132.539062 2084.004639,1135.202515 
	C2083.998535,1195.487793 2083.848389,1255.773682 2084.091797,1316.057983 
	C2084.165527,1334.293335 2086.475342,1352.565674 2085.814209,1370.750366 
	C2081.615479,1486.229858 2085.281982,1601.738159 2083.927979,1717.222290 
	C2083.863281,1722.707886 2084.350098,1727.776245 2087.903564,1732.985718 
	C2036.185059,1742.624878 1985.134277,1741.018066 1934.691772,1721.955566 
	C1934.013184,1530.006104 1933.985474,1338.412720 1934.087524,1146.819214 
	C1934.091064,1140.013184 1933.376709,1133.606689 1930.071533,1126.804932 
	C1946.764404,1122.142212 1963.378784,1116.618286 1980.393677,1114.757202 
	C2003.494873,1112.230469 2026.902710,1112.506836 2051.684082,1112.400269 
	C2061.117920,1113.425781 2069.046387,1113.631836 2076.975098,1113.838013 
	C2078.254883,1113.786377 2079.534668,1113.734863 2081.417236,1113.940430 
z"/>
<path fill="#2A483C" opacity="1.000000" stroke="none" 
	d="
M1053.337158,1115.972778 
	C1050.865234,1119.703369 1041.888916,1122.569946 1036.417114,1121.725830 
	C1035.122925,1121.526367 1033.920410,1120.695801 1032.627686,1120.529663 
	C1026.693115,1119.767212 1022.136414,1123.311279 1022.087280,1129.433838 
	C1021.907837,1151.765625 1020.408691,1174.248413 1022.456726,1196.392212 
	C1024.614502,1219.723145 1023.312988,1242.929321 1023.914001,1266.177734 
	C1024.353149,1283.166382 1023.991760,1300.175415 1024.003174,1317.175415 
	C1024.009766,1327.034302 1024.024048,1327.034302 1028.605835,1333.225464 
	C1027.641968,1341.118530 1026.328979,1347.823242 1026.073242,1354.568237 
	C1021.590759,1472.790771 1025.068359,1591.062256 1024.098755,1709.308472 
	C1024.014771,1719.545044 1025.322998,1729.792847 1025.981934,1740.874756 
	C999.369446,1743.734863 972.950745,1741.634644 946.798767,1736.945801 
	C931.514526,1734.205444 916.504333,1729.936646 900.684021,1725.097046 
	C900.664795,1651.019043 901.450500,1578.200195 901.952393,1505.379395 
	C902.220825,1466.431763 901.997620,1427.480713 902.004639,1388.531250 
	C902.005188,1385.536011 901.987976,1382.537109 902.122314,1379.546265 
	C902.716919,1366.313599 903.446960,1353.086304 903.910706,1339.849365 
	C903.988708,1337.624268 902.947083,1335.371338 902.510864,1333.114258 
	C901.641602,1328.616943 900.138245,1324.112183 900.110901,1319.602905 
	C899.906799,1285.981201 900.019958,1252.357544 899.968750,1218.734497 
	C899.963745,1215.433472 900.371277,1211.761963 899.122192,1208.902588 
	C895.497864,1200.605835 895.998901,1192.006958 895.999634,1183.381958 
	C896.000671,1171.064575 896.180054,1158.742676 895.870117,1146.433105 
	C895.794128,1143.415527 894.115662,1140.438477 893.174011,1137.442749 
	C912.218506,1132.271362 931.051086,1126.015747 950.368164,1122.238403 
	C969.098877,1118.575806 988.327454,1117.459595 1009.181030,1115.561768 
	C1023.011292,1115.860229 1034.997803,1115.822021 1046.984375,1115.783813 
	C1048.876465,1115.763916 1050.768677,1115.743896 1053.337158,1115.972778 
z"/>
<path fill="#2C4738" opacity="1.000000" stroke="none" 
	d="
M823.084290,1692.375244 
	C802.990417,1682.353149 785.170532,1668.984009 768.283264,1654.396973 
	C717.211304,1610.281006 681.033447,1556.487915 666.200867,1490.147339 
	C646.460938,1401.858032 667.103638,1322.477295 723.066223,1252.101562 
	C752.477722,1215.114990 788.874634,1186.286987 830.951782,1164.702393 
	C830.250916,1172.827881 828.203491,1180.300415 828.151489,1187.786621 
	C827.843994,1232.045654 828.069763,1276.308228 827.924072,1320.568970 
	C827.902466,1327.145142 826.843323,1333.716187 826.314087,1340.293579 
	C826.181580,1341.940186 826.118225,1343.611450 826.236877,1345.255859 
	C826.783264,1352.829590 827.889709,1360.395996 827.919678,1367.968506 
	C828.086853,1410.232300 828.000000,1452.497070 828.000000,1494.761597 
	C828.000000,1514.729004 828.678955,1534.726196 827.808594,1554.655640 
	C826.942566,1574.487549 827.838440,1594.250732 827.968933,1614.045532 
	C828.107178,1635.010376 827.989441,1655.976929 828.006592,1676.942749 
	C828.011230,1682.624634 827.863342,1688.231445 823.084290,1692.375244 
z"/>
<path fill="#313E3E" opacity="1.000000" stroke="none" 
	d="
M2249.202393,1675.893677 
	C2243.002686,1673.478516 2241.988037,1668.441528 2241.992676,1662.846558 
	C2242.013184,1638.216187 2241.894775,1613.584717 2242.138916,1588.956787 
	C2242.168945,1585.924805 2243.396484,1582.380615 2245.257324,1580.004028 
	C2248.764404,1575.525024 2250.068115,1570.833130 2250.060791,1565.252563 
	C2249.968750,1493.691406 2249.987061,1422.130127 2250.030518,1350.568848 
	C2250.033203,1346.115112 2249.552490,1342.481079 2245.614258,1339.144897 
	C2243.297852,1337.182495 2242.164307,1332.682495 2242.148926,1329.316406 
	C2241.934570,1282.386475 2241.931885,1235.455078 2242.095947,1188.524780 
	C2242.117676,1182.285767 2243.339355,1176.050903 2244.014160,1168.926636 
	C2279.670166,1190.092529 2312.184570,1215.728882 2338.168457,1249.069946 
	C2384.344238,1308.320557 2406.465332,1374.994995 2399.853516,1450.250488 
	C2394.993408,1505.563110 2373.505859,1554.352295 2339.238770,1597.712036 
	C2325.142822,1615.548340 2309.473633,1631.968506 2291.581787,1645.962769 
	C2278.152588,1656.466187 2263.745117,1665.718506 2249.202393,1675.893677 
z"/>
<path fill="#2B483A" opacity="1.000000" stroke="none" 
	d="
M823.519470,1692.945679 
	C827.863342,1688.231445 828.011230,1682.624634 828.006592,1676.942749 
	C827.989441,1655.976929 828.107178,1635.010376 827.968933,1614.045532 
	C827.838440,1594.250732 826.942566,1574.487549 827.808594,1554.655640 
	C828.678955,1534.726196 828.000000,1514.729004 828.000000,1494.761597 
	C828.000000,1452.497070 828.086853,1410.232300 827.919678,1367.968506 
	C827.889709,1360.395996 826.783264,1352.829590 826.236877,1345.255859 
	C826.118225,1343.611450 826.181580,1341.940186 826.314087,1340.293579 
	C826.843323,1333.716187 827.902466,1327.145142 827.924072,1320.568970 
	C828.069763,1276.308228 827.843994,1232.045654 828.151489,1187.786621 
	C828.203491,1180.300415 830.250916,1172.827881 831.653809,1164.615723 
	C850.664551,1152.385132 870.986023,1144.487305 892.442505,1137.473145 
	C894.115662,1140.438477 895.794128,1143.415527 895.870117,1146.433105 
	C896.180054,1158.742676 896.000671,1171.064575 895.999634,1183.381958 
	C895.998901,1192.006958 895.497864,1200.605835 899.122192,1208.902588 
	C900.371277,1211.761963 899.963745,1215.433472 899.968750,1218.734497 
	C900.019958,1252.357544 899.906799,1285.981201 900.110901,1319.602905 
	C900.138245,1324.112183 901.641602,1328.616943 902.510864,1333.114258 
	C902.947083,1335.371338 903.988708,1337.624268 903.910706,1339.849365 
	C903.446960,1353.086304 902.716919,1366.313599 902.122314,1379.546265 
	C901.987976,1382.537109 902.005188,1385.536011 902.004639,1388.531250 
	C901.997620,1427.480713 902.220825,1466.431763 901.952393,1505.379395 
	C901.450500,1578.200195 900.664795,1651.019043 899.994324,1724.754150 
	C873.131226,1718.533691 848.122314,1707.019531 823.519470,1692.945679 
M850.825623,1332.002686 
	C847.877747,1332.537231 844.011963,1330.504517 842.214355,1335.490234 
	C846.995178,1339.602295 852.054016,1338.141357 857.235291,1336.806641 
	C857.909790,1332.358154 855.278564,1332.110352 850.825623,1332.002686 
z"/>
<path fill="#2A4B41" opacity="1.000000" stroke="none" 
	d="
M1046.209717,1115.311523 
	C1034.997803,1115.822021 1023.011292,1115.860229 1010.002319,1115.848633 
	C1021.131653,1115.478882 1033.283325,1115.159058 1046.209717,1115.311523 
z"/>
<path fill="#2F4341" opacity="1.000000" stroke="none" 
	d="
M2076.189209,1113.401123 
	C2069.046387,1113.631836 2061.117920,1113.425781 2052.594971,1112.641846 
	C2059.801514,1112.363892 2067.602539,1112.663940 2076.189209,1113.401123 
z"/>
<path fill="#2D4743" opacity="1.000000" stroke="none" 
	d="
M2092.755371,1733.316895 
	C2093.248535,1732.831055 2094.322754,1732.463867 2095.986816,1732.155518 
	C2095.496338,1732.621338 2094.416504,1733.028564 2092.755371,1733.316895 
z"/>
<path fill="#294D47" opacity="1.000000" stroke="none" 
	d="
M1521.732910,2124.345703 
	C1498.478516,2121.957275 1472.854004,2102.051270 1468.282837,2068.029785 
	C1465.556885,2047.741089 1470.100586,2029.004883 1483.259644,2012.849487 
	C1506.343628,1984.509277 1546.370239,1982.715698 1571.909302,2008.832031 
	C1597.716431,2035.222290 1597.957397,2080.097656 1572.186035,2106.454590 
	C1558.623169,2120.325684 1542.106201,2126.740723 1521.732910,2124.345703 
M1557.796875,2050.323730 
	C1556.412598,2046.958130 1555.439697,2043.343262 1553.576782,2040.267578 
	C1542.076538,2021.280884 1516.621338,2021.342285 1505.148315,2040.327393 
	C1501.447266,2046.451904 1499.755859,2053.176758 1500.313721,2060.357666 
	C1501.510498,2075.769287 1512.676514,2087.830566 1527.107178,2089.386719 
	C1540.182007,2090.796631 1553.845947,2080.918213 1557.274292,2066.845947 
	C1558.426270,2062.117188 1557.833496,2056.963135 1557.796875,2050.323730 
z"/>
<path fill="#2C4738" opacity="1.000000" stroke="none" 
	d="
M851.665405,1332.009888 
	C855.278564,1332.110352 857.909790,1332.358154 857.235291,1336.806641 
	C852.054016,1338.141357 846.995178,1339.602295 842.214355,1335.490234 
	C844.011963,1330.504517 847.877747,1332.537231 851.665405,1332.009888 
z"/>
<path fill="#FCFDFD" opacity="1.000000" stroke="none" 
	d="
M1557.917480,2051.163574 
	C1557.833496,2056.963135 1558.426270,2062.117188 1557.274292,2066.845947 
	C1553.845947,2080.918213 1540.182007,2090.796631 1527.107178,2089.386719 
	C1512.676514,2087.830566 1501.510498,2075.769287 1500.313721,2060.357666 
	C1499.755859,2053.176758 1501.447266,2046.451904 1505.148315,2040.327393 
	C1516.621338,2021.342285 1542.076538,2021.280884 1553.576782,2040.267578 
	C1555.439697,2043.343262 1556.412598,2046.958130 1557.917480,2051.163574 
z"/>
</svg>